<svg viewBox="0 0 36 50" fill="none" xmlns="http://www.w3.org/2000/svg">
<path d="M23.1078 27.8747C22.769 27.1462 22.2469 26.7323 21.996 26.5617C21.6508 26.3414 21.1974 26.0968 20.6511 25.9083C19.6526 25.5568 18.7675 25.525 18.1829 25.5568C17.4544 25.5887 16.7196 25.6256 15.9911 25.6575C15.9911 25.6575 15.9911 24.7214 16.0281 24.4259C16.1032 23.8477 16.1592 23.4274 16.4611 23.0072C16.7005 22.6735 16.9883 22.4863 17.1768 22.3857C16.8941 22.2914 16.5362 22.1411 16.1656 21.8712C15.4804 21.3808 15.1226 20.7848 14.9468 20.4397C14.7711 20.4269 14.482 20.4397 14.175 20.5785C13.4898 20.8803 13.2581 21.5579 13.2135 21.6903C13.3014 23.216 13.3956 24.743 13.4835 26.2751C11.2484 26.8215 10.3811 27.0915 10.1926 27.2112C10.1671 27.2303 10.0792 27.2863 9.97227 27.28C9.79015 27.2672 9.74685 27.0673 9.55199 26.9463C9.27563 26.7769 8.91139 26.8966 8.81715 26.9272C8.64777 26.9832 8.47838 27.0902 8.28353 27.3169C7.61746 28.0772 7.64293 29.1317 7.6493 29.3024C7.66203 29.6412 7.7308 29.9048 7.83141 30.3072C7.90655 30.6142 8.0199 30.9797 8.18928 31.3681C8.36504 31.7705 8.55352 32.1029 8.73564 32.3729C8.98017 32.7805 9.2629 33.2211 9.5902 33.6732C9.9417 34.1572 10.2945 34.5902 10.6332 34.9672C10.6893 34.9048 10.7721 34.8093 10.8536 34.6845C10.9669 34.5087 10.9924 34.3954 11.0357 34.3075C11.1669 34.0566 11.5069 33.9814 11.7896 33.9369C12.4048 33.8426 13.0899 33.7484 13.849 33.6541C13.9432 38.132 14.0375 42.6162 14.1317 47.0953C14.1445 47.1577 14.1814 47.3462 14.3571 47.4914C14.445 47.5665 14.5393 47.5984 14.5966 47.6111C14.6411 47.5793 14.6972 47.536 14.7596 47.4723C15.0296 47.1896 15.0933 46.8508 15.1429 46.4611C15.2117 45.9708 15.2563 45.5123 15.2868 45.0856C15.4308 41.2739 15.5823 37.4672 15.7262 33.6541C16.7565 33.5917 17.4099 33.6796 17.8174 33.7802C17.9562 33.8121 18.3141 33.9114 18.7917 33.8808C19.0986 33.8617 19.3508 33.7993 19.5138 33.7497C19.5329 33.6363 19.5456 33.4988 19.5265 33.3345C19.4514 32.8072 19.0426 32.499 18.9305 32.4239C19.0808 32.117 19.3329 31.6827 19.7405 31.2497C20.3251 30.6282 20.9338 30.3263 21.4483 30.0754C21.9005 29.8551 22.5602 29.5851 23.4211 29.4348C23.4287 29.1317 23.416 28.5344 23.1078 27.8747ZM12.6939 32.5856C12.0533 32.7486 11.5133 32.969 11.0803 33.188C11.0433 32.5793 10.9733 31.9259 10.8727 31.2407C10.7097 30.1289 10.4766 29.1177 10.2193 28.2262C10.5148 28.2008 10.753 28.1575 10.9236 28.1192C11.3388 28.0314 11.6839 27.9066 12.2176 27.7117C12.3487 27.662 12.457 27.6238 12.5245 27.5984C12.6633 27.5423 12.9142 27.4672 13.2288 27.5041C13.3549 27.5168 13.4606 27.5487 13.5497 27.5856C13.5815 29.1929 13.6121 30.8014 13.6439 32.4162C13.3536 32.4404 13.0339 32.4978 12.6939 32.5856ZM18.593 29.9099C18.1969 30.7899 18.0339 31.5872 17.9588 32.159L15.7733 32.2086C15.8179 30.5632 15.8612 28.9178 15.8994 27.2723C15.9682 27.2036 16.0688 27.1093 16.2204 27.0405C16.4152 26.9463 16.591 26.9399 16.6788 26.9336C18.1613 26.8775 18.9585 26.8457 19.5864 27.4239C19.6743 27.499 19.8067 27.6366 19.9315 27.8442C19.5342 28.2899 19.0133 28.9738 18.593 29.9099Z" fill="white" stroke="white" stroke-width="0.25" stroke-miterlimit="10"/>
<path d="M5.17601 18.3663H1L1.14391 37.3716C1.91569 44.1419 7.60087 49.3431 14.3457 49.5252C21.2165 49.7073 27.2405 44.6258 28.2262 37.755C28.2326 37.485 28.2326 37.215 28.2389 36.945" stroke="white" stroke-width="0.5" stroke-miterlimit="10"/>
<path d="M12.9271 18.3663H6.3504" stroke="white" stroke-width="0.5" stroke-miterlimit="10"/>
<path d="M16.5758 18.3663H14.9431" stroke="white" stroke-width="0.5" stroke-miterlimit="10"/>
<path d="M26.5872 18.3663H19.2209" stroke="white" stroke-width="0.5" stroke-miterlimit="10"/>
<path d="M28.3958 24.6157C28.4149 23.2708 28.4327 21.9336 28.4455 20.59" stroke="white" stroke-width="0.5" stroke-miterlimit="10"/>
<path d="M28.2645 34.6705C28.3015 31.9438 28.3333 29.2183 28.3715 26.4929" stroke="white" stroke-width="0.5" stroke-miterlimit="10"/>
<path d="M20.7147 11.903C20.6332 12.0533 20.539 12.21 20.4256 12.3679C19.8296 13.1779 19.0502 13.5867 18.5229 13.7943C18.4223 13.4988 18.3281 13.2034 18.2275 12.9092C18.1714 13.1664 18.039 13.5867 17.713 14.0082C17.173 14.6985 16.4572 14.9188 16.2 14.9876C16.1312 14.7431 16.0611 14.4973 15.9924 14.2464C15.9427 14.347 15.8663 14.4858 15.7478 14.6297C15.3212 15.1392 14.7239 15.2703 14.4348 15.334C14.1903 15.3901 13.7815 15.4474 13.2657 15.3531C13.3103 15.1837 13.3536 15.0194 13.4045 14.8513C13.053 14.8322 12.7002 14.8144 12.3436 14.8017C12.3245 14.7826 12.2048 14.6756 12.2048 14.5062C12.2048 14.3483 12.3054 14.1993 12.4557 14.1292C12.6875 14.2731 13.1281 14.5062 13.7114 14.5317C13.9623 14.5444 14.1763 14.5126 14.352 14.4756C14.5099 14.6196 14.659 14.7711 14.8169 14.915C14.7914 14.7456 14.7799 14.4756 14.8487 14.1611C14.943 13.7535 15.1378 13.4644 15.2563 13.3192L15.9975 13.6453L14.9735 11.3529L15.3887 10.7747C15.0741 10.7747 14.7545 10.7747 14.4399 10.7747C14.0375 10.4486 13.6796 10.2219 13.416 10.078C12.9766 9.82714 12.7435 9.70106 12.4111 9.65139C11.9399 9.58898 11.5438 9.72653 11.3248 9.82714C11.4063 9.65139 11.4827 9.46927 11.5642 9.29352C11.6521 9.09229 11.7463 8.89107 11.8342 8.69112C11.7591 8.78536 11.6457 8.91145 11.4763 9.02479C11.1745 9.21965 10.8676 9.24512 10.7224 9.25022C10.8039 9.20564 11.0178 9.08083 11.1554 8.8172C11.3184 8.50263 11.2687 8.20844 11.256 8.12693C11.0802 8.25302 10.9045 8.38419 10.7224 8.51028C10.5594 8.4848 10.3963 8.4657 10.2384 8.4415C10.3072 8.39183 10.5339 8.22118 10.6218 7.90788C10.7351 7.52454 10.5721 7.21124 10.5403 7.14756C10.4957 7.29148 10.4014 7.53727 10.1888 7.76269C10.069 7.88878 9.94932 7.97029 9.84999 8.02632H8.80694C8.66303 8.12693 8.51147 8.22754 8.36756 8.32816C8.38666 8.17788 8.40449 7.86967 8.26058 7.51817C8.09756 7.11573 7.81483 6.8903 7.69512 6.80243C7.78936 7.03422 7.97785 7.60095 7.83394 8.29759C7.73969 8.73697 7.55121 9.06427 7.41875 9.25276C7.27484 9.27823 7.01121 9.34064 6.77179 9.55969C7.03541 9.36484 7.31178 9.36484 7.39965 9.36484C7.48116 9.39667 7.64418 9.47182 7.76389 9.6412C7.93327 9.88063 7.91417 10.1379 7.90271 10.2818C7.89125 10.4257 7.85813 10.8409 7.50663 11.0803C7.45696 11.1122 7.16786 11.3121 6.85329 11.2115C6.57693 11.1173 6.43302 10.8409 6.38208 10.5836C6.38844 10.7466 6.41391 10.8664 6.41391 10.8791C6.33877 10.916 6.11845 11.0103 5.82935 10.9542C5.57209 10.9046 5.40271 10.7594 5.3454 10.7033L5.67907 11.3248L4.91875 10.8791L4.99389 11.5006L4.15844 11.0549C4.37876 11.3503 4.59782 11.6509 4.81814 11.9463C4.78121 12.1157 4.7239 12.4672 4.87418 12.8378C4.91875 12.9448 4.96842 13.0327 5.02446 13.1078C5.04356 12.8824 5.06139 12.6621 5.0805 12.4354C5.17474 12.429 5.26898 12.4163 5.36323 12.4099C5.41289 12.592 5.46384 12.7805 5.50714 12.9626C5.53898 12.7933 5.56318 12.6175 5.59502 12.4481H5.86501C5.92105 12.6111 5.97199 12.7742 6.02803 12.9384C6.05986 12.7996 6.09043 12.6621 6.12227 12.5233L6.76287 12.5424C6.76287 12.6048 6.76287 12.6735 6.76287 12.7372C6.57438 12.9384 6.30439 13.183 5.94015 13.3969C5.28681 13.7803 4.65895 13.8745 4.30108 13.8987L6.68773 13.9356C6.76924 14.1178 6.85712 14.2999 6.93862 14.482C6.88259 14.5011 6.81891 14.5138 6.75013 14.5189C6.4483 14.5317 6.23562 14.3177 6.17831 14.2617C6.25981 14.4374 6.33623 14.6132 6.41773 14.7953C6.20505 14.8641 5.99746 14.9392 5.7835 15.008C6.09043 15.0144 6.44321 15.0526 6.83164 15.1341C7.04433 15.1786 7.23918 15.2347 7.41621 15.292C7.82375 14.752 8.2644 14.4438 8.52166 14.5571C8.55859 14.5763 8.60317 14.6017 8.64137 14.6514C8.64137 14.589 8.6159 13.9229 9.09349 13.6083C9.2132 13.5268 9.34438 13.4886 9.45136 13.4695C9.4641 13.2186 9.53924 12.3641 10.2117 11.7298C10.3747 11.5796 10.702 11.2777 11.2229 11.1835C11.7132 11.102 12.108 11.2459 12.2965 11.3274C12.4404 11.3962 12.6989 11.5159 12.9116 11.7986C13.1192 12.0686 13.1816 12.345 13.2007 12.4838C12.7741 12.4469 12.434 12.3768 12.2023 12.3259C11.8253 12.2444 11.675 12.1756 11.4305 12.187C11.0726 12.2062 10.7899 12.3755 10.6078 12.5131C10.3951 12.7207 10.0232 13.1346 9.84744 13.7637C9.64621 14.4858 9.79777 15.1455 9.98626 15.604L8.54204 16.9795L6.66353 17.3055C6.68264 17.2558 6.86476 16.8215 6.61896 16.3822C6.34896 15.8982 5.81534 15.8549 5.77077 15.8549C5.81534 15.8867 6.10953 16.1058 6.12864 16.4955C6.14137 16.7209 6.04713 16.898 6.00255 16.9667C5.8268 16.3325 5.34285 15.8804 4.80923 15.8422C4.45136 15.8167 4.17499 15.9733 4.04254 16.0625C4.09858 16.0498 4.62711 15.9491 5.02828 16.3198C5.29191 16.5643 5.34285 16.8661 5.36195 16.9667C4.74046 16.3389 3.95467 16.1873 3.51529 16.4955C3.43378 16.5515 3.24529 16.7082 3.15105 17.0737C3.21982 17.024 3.58406 16.74 4.10622 16.8101C4.63348 16.8725 4.92894 17.2495 4.97352 17.3119C4.8296 17.3119 4.62201 17.3119 4.37112 17.3373C3.8617 17.3934 3.56114 17.4252 3.32298 17.6392C3.23511 17.7143 3.05935 17.9028 2.99695 18.2798C3.15487 18.1855 3.41213 18.0543 3.74453 17.9907C4.12787 17.9155 4.44881 17.9588 4.63602 17.997C4.91239 18.1983 5.26389 18.4619 5.6727 18.7765C6.2942 19.254 6.48905 19.4171 6.53363 19.6934C6.5833 19.9825 6.43302 20.2461 6.32604 20.4028C6.52089 20.2958 6.70938 20.1901 6.90424 20.0819C6.94881 20.0003 7.11692 19.6488 7.00485 19.2209C6.86093 18.6809 6.37698 18.4606 6.31458 18.4351C7.55757 18.3282 8.89609 18.1397 10.3021 17.8391C10.7045 17.7512 11.1006 17.657 11.4763 17.5628C11.4636 17.55 11.4509 17.5373 11.4317 17.5258C11.4254 17.5195 11.9157 17.941 12.5741 18.2301C12.8632 18.3562 13.095 18.4186 13.1765 18.4377C13.5535 18.5319 13.8808 18.5447 14.1126 18.5383C14.3762 18.5192 14.7901 18.4568 15.2435 18.2237C15.539 18.0734 15.758 17.8977 15.916 17.7525C15.9287 17.7971 16.0229 18.1486 16.3553 18.2925C16.4623 18.3371 16.5629 18.3485 16.6444 18.3485C16.5566 18.5307 16.5005 18.7064 16.4623 18.8452C16.4177 18.9586 16.1987 19.5673 16.512 20.1392C16.619 20.3404 16.7629 20.4728 16.8762 20.5594L17.0201 19.1776C17.0265 19.4413 17.0825 19.7737 17.2901 20.0882C17.4404 20.32 17.6238 20.4652 17.7613 20.5594C17.7613 20.1073 17.7613 19.6552 17.7613 19.2031C17.7868 19.4234 17.8429 19.6807 17.9689 19.9379C18.0632 20.1328 18.1702 20.2958 18.2708 20.4219C18.2771 20.0322 18.2835 19.6501 18.2962 19.2604C18.309 19.3992 18.3332 19.5495 18.3841 19.7125C18.4656 20.0016 18.5853 20.227 18.686 20.3901C18.6605 20.1392 18.6541 19.7558 18.7675 19.3164C18.9305 18.7204 19.245 18.3116 19.4399 18.0926C19.3839 18.0556 19.3011 17.9983 19.1954 17.9537C19.0693 17.8977 18.9636 17.8786 18.8375 17.8531C18.6796 17.8277 18.4542 17.7971 18.1714 17.778C18.1714 17.671 18.1714 17.5577 18.1714 17.452H17.4493C17.4939 17.4265 17.5372 17.4074 17.569 17.3959C17.7448 17.3641 18.1536 17.3208 18.6172 17.5029C18.8617 17.5971 19.0438 17.7283 19.1011 17.7729C19.2514 17.8862 19.3584 17.9983 19.4399 18.0938C19.4463 18.1002 19.4526 18.1066 19.459 18.1193C19.459 18.1129 19.5851 17.7614 19.5902 17.7551L19.7099 17.4163C19.3266 17.1463 18.9381 16.8827 18.5548 16.6127C19.1266 16.4115 19.7863 16.2102 20.5326 16.0536L20.7147 11.903ZM23.2338 15.7275C23.2657 15.7275 23.2962 15.7275 23.3281 15.7212C23.635 15.6842 24.1444 15.6715 24.6602 15.916C24.7991 15.9848 25.2563 16.2179 25.9975 17.3539C26.7451 18.5039 26.6572 18.6988 27.0533 19.2451C27.3551 19.6654 27.6556 19.9672 27.8569 20.1557C27.9702 20.2627 28.1638 20.4257 28.4223 20.6015C29.0502 21.0281 29.3457 21.0217 29.6348 21.3732C29.9175 21.7184 29.9557 22.1208 29.9684 22.2711C30.0308 22.9372 29.6984 23.4262 29.566 23.6275C29.1635 24.2235 28.5994 24.4693 28.3663 24.5572C28.2721 24.7151 28.0326 25.185 28.1027 25.8078C28.1587 26.3172 28.3918 26.6687 28.5102 26.8254C28.6172 26.4102 28.7229 25.9963 28.8311 25.5824C28.8184 25.7709 28.8248 25.9848 28.8808 26.2039C28.9432 26.4548 29.0502 26.6496 29.1444 26.7884C28.9751 26.9706 28.7114 27.3093 28.5662 27.7996C28.4593 28.1575 28.4529 28.4721 28.472 28.6848C28.635 29.1687 28.7929 29.7405 28.905 30.4003C29.012 31.0281 29.0553 31.5999 29.0629 32.089C29.1075 32.4278 29.1317 33.0556 28.8681 33.7599C28.7051 34.1993 28.4784 34.5266 28.2963 34.7456C27.8441 34.6896 27.4977 34.7775 27.3041 34.8399C27.0405 34.9278 26.6317 35.0653 26.5438 35.3926C26.512 35.5123 26.5311 35.6244 26.5502 35.6995C26.5757 35.6626 26.8571 35.2347 27.2723 35.2538C27.3347 35.2602 27.4162 35.2729 27.5041 35.3162C27.4099 35.3531 27.3156 35.4041 27.2214 35.4601C26.7005 35.7861 26.4611 36.2892 26.3541 36.5719C26.498 36.4586 26.6928 36.321 26.9565 36.2077C27.1195 36.1389 27.271 36.0943 27.3958 36.0638C27.3207 36.1198 27.0189 36.3707 26.9501 36.8114C26.8941 37.145 26.9998 37.4023 27.0507 37.5016C27.0571 37.3628 27.1004 36.9807 27.4022 36.6598C27.5283 36.521 27.6658 36.4344 27.7728 36.3834C27.704 36.5592 27.5971 36.898 27.6289 37.3259C27.6607 37.7029 27.7792 37.992 27.8683 38.155C27.9244 37.7716 28.0568 37.3068 28.3396 36.8483C28.3841 36.7732 28.4338 36.7044 28.4784 36.6407C28.4911 36.8483 28.5344 37.1247 28.6363 37.4265C28.7178 37.671 28.8184 37.8786 28.9127 38.0353C28.8439 37.4698 28.8439 36.7604 29.0438 35.981C29.0808 35.8307 29.1253 35.6919 29.175 35.5544C29.1814 35.7492 29.231 36.1567 29.501 36.5783C29.7023 36.8852 29.9404 37.075 30.092 37.1807C29.9659 36.9986 29.822 36.7477 29.7277 36.4267C29.4959 35.6601 29.6781 34.9889 29.7774 34.7062C29.8971 34.9825 30.1353 35.4104 30.5938 35.7301C30.6944 35.7989 30.7886 35.8498 30.8829 35.8995C30.7389 35.711 30.5377 35.4155 30.4053 35.0144C30.2359 34.4998 30.2423 34.0528 30.2665 33.7905C30.4791 33.9917 30.6931 34.1866 30.9134 34.3865C30.7249 33.9089 30.5364 33.425 30.348 32.9486L30.3671 31.9056L31.1146 32.1629C31.0268 32.0686 30.9389 31.9616 30.8574 31.8483C30.418 31.2141 30.3365 30.5416 30.3238 30.1213C30.4995 30.2602 30.6753 30.4041 30.851 30.5416C30.7122 30.2525 30.5619 29.845 30.4804 29.3419C30.3798 28.695 30.4358 28.155 30.5059 27.7971C30.7568 27.9983 31.0026 28.2046 31.2535 28.4059C31.1529 28.2174 31.0586 27.9856 30.9835 27.7156C30.7886 27.0113 30.8638 26.3962 30.9389 26.0268C31.2458 26.1275 31.554 26.2217 31.8622 26.3223C31.7743 26.1962 31.6368 25.9581 31.5859 25.632C31.5171 25.1863 31.6546 24.8335 31.7247 24.6896C31.875 24.7838 32.0265 24.8717 32.1768 24.966C32.0826 24.7265 31.9947 24.4196 31.9374 24.0554C31.8686 23.565 31.8928 23.1448 31.9374 22.8429C32.0189 22.7041 32.0953 22.5666 32.1768 22.4278L32.6289 22.7041C32.5283 22.5908 32.4035 22.4278 32.3029 22.2138C32.108 21.8063 32.1017 21.4229 32.1144 21.2153C32.7295 21.0077 33.5713 20.6066 34.2947 19.7889C34.7596 19.2617 35.0423 18.6338 35.0741 18.5701C35.1811 18.3384 35.3696 17.885 35.4702 17.3017C35.5263 16.9807 35.8472 15.1213 34.7417 13.672C34.5978 13.4835 34.3024 13.1002 33.7675 12.7996C33.1765 12.466 32.6123 12.4099 32.3105 12.3972C32.015 12.4036 31.5311 12.4469 30.9847 12.6735C30.376 12.9308 30.0054 13.295 29.8347 13.4644C28.8426 14.4502 28.6732 15.7759 28.6287 16.2153C28.3778 16.0268 28.1956 15.8129 28.0759 15.5875C27.8123 15.1099 27.9065 14.7711 27.6174 14.4323C27.4417 14.2247 27.2023 14.1114 26.9832 14.049L27.5232 13.4581C27.2468 13.4772 26.9705 13.4899 26.7005 13.5077C26.2611 13.2632 25.7389 13.0238 25.1429 12.8353C24.9926 12.7856 24.8411 12.7474 24.6972 12.7092C24.892 12.4647 25.0932 12.2189 25.2881 11.9807C25.106 12.0941 24.8232 12.238 24.4654 12.3144C23.9063 12.4405 23.4351 12.3513 23.1905 12.2826L23.2338 15.7275ZM9.34693 10.7161C9.32782 10.8473 9.29726 11.0867 9.1075 11.2943C9.08203 11.3198 8.70505 11.7337 8.30388 11.5834C8.05299 11.4891 7.95238 11.2319 7.92691 11.1682C7.9078 11.1185 7.71422 10.5722 8.04662 10.1379C8.24148 9.88063 8.64265 9.6361 8.95085 9.76728C9.16353 9.86152 9.26542 10.101 9.29599 10.1825C9.3915 10.4028 9.36603 10.5976 9.34693 10.7161ZM33.3459 16.13C33.0632 16.1669 32.7741 16.2051 32.4914 16.2433L33.1192 16.6585C33.1562 16.8215 33.2071 17.0979 33.1511 17.4379C33.0823 17.834 32.9002 18.1155 32.7996 18.2479C32.6111 18.0658 32.4226 17.8837 32.2277 17.6952V18.4237C32.2214 18.4683 32.1781 18.6682 31.9883 18.807C31.7998 18.9458 31.605 18.9267 31.5617 18.9204C31.3986 18.7574 31.1032 18.4058 30.9835 17.8837C30.9338 17.671 30.9274 17.4812 30.9338 17.3246C31.1414 17.2622 31.349 17.1985 31.5617 17.1361C31.4802 17.0915 31.3923 17.0355 31.3108 16.9476C30.9898 16.5961 31.0854 16.0994 31.1032 16.0179C31.3235 16.0549 31.5426 16.0931 31.7629 16.1376C31.5808 15.9428 31.5235 15.6664 31.6241 15.4334C31.7438 15.157 32.0634 15.0003 32.3844 15.0755C32.4341 15.0755 32.862 15.0819 33.1447 15.4334C33.3841 15.7275 33.3523 16.0612 33.3459 16.13Z" stroke="white" stroke-width="0.25" stroke-miterlimit="10"/>
<path d="M6.77174 9.55463C6.74626 9.57373 6.37566 9.85646 6.3642 10.3404C6.3642 10.4092 6.37056 10.4907 6.38967 10.5722C6.38203 10.2895 6.43934 9.86155 6.77174 9.55463Z" stroke="white" stroke-width="0.25" stroke-miterlimit="10"/>
<path d="M22.8761 16.526H23.2964C23.1958 15.3709 23.1015 13.7624 23.1461 11.8342C23.1907 9.84871 23.2276 8.00332 23.7739 5.6918C24.0503 4.51121 24.5406 2.87214 25.4627 1C24.0439 2.03031 23.2645 3.11666 22.857 3.8082C22.4367 4.51758 22.1718 5.19639 21.9897 5.66124C21.777 6.20759 21.4994 6.99847 21.2421 8.16124C20.8155 10.0639 20.7403 11.5846 20.6142 13.8706C20.5582 14.9824 20.5327 15.8994 20.5264 16.5336H20.5455" stroke="white" stroke-width="0.25" stroke-miterlimit="10"/>
<path d="M22.3538 16.5259H22.6174" stroke="white" stroke-width="0.25" stroke-miterlimit="10"/>
<path d="M21.801 16.5259H22.071" stroke="white" stroke-width="0.25" stroke-miterlimit="10"/>
<path d="M21.2433 16.5259H21.5133" stroke="white" stroke-width="0.25" stroke-miterlimit="10"/>
<path d="M20.7147 16.5259H20.9592" stroke="white" stroke-width="0.25" stroke-miterlimit="10"/>
<path d="M23.2897 16.526C23.2897 16.5578 23.2706 16.5705 23.24 16.5514L22.7943 16.2178C22.7688 16.1987 22.7688 16.1617 22.7943 16.1426L23.1776 15.8726C23.2031 15.8535 23.2031 15.828 23.1712 15.8166L22.6504 15.6281C22.6185 15.6154 22.6134 15.5912 22.644 15.5721L23.1407 15.2575C23.1725 15.2384 23.1662 15.2129 23.1343 15.2015L22.644 15.0066C22.6122 14.9939 22.6122 14.9697 22.644 14.9569L23.1088 14.7315C23.1407 14.7188 23.1407 14.6946 23.1088 14.6818L22.644 14.4692C22.6122 14.4564 22.6122 14.4322 22.644 14.4246L23.0897 14.2807C23.1216 14.2679 23.1267 14.2437 23.0961 14.2246L22.6376 13.9228C22.6058 13.9037 22.6122 13.8782 22.644 13.8731L23.0706 13.7598C23.1025 13.7534 23.1076 13.7279 23.0834 13.7037L22.6313 13.3331C22.6058 13.314 22.6122 13.2835 22.644 13.2771L23.0643 13.1383C23.0961 13.1255 23.1012 13.1013 23.077 13.0822L22.6695 12.7486C22.644 12.7295 22.6504 12.704 22.6822 12.6925L23.0655 12.5919C23.0974 12.5856 23.1025 12.555 23.0783 12.5359L22.6949 12.178C22.6695 12.1525 22.6758 12.1283 22.7077 12.1156L23.0719 11.9895C23.1038 11.9768 23.1088 11.9526 23.0846 11.9271L22.714 11.5502C22.6886 11.5247 22.6949 11.4941 22.7268 11.4814L23.0783 11.3426C23.1101 11.3298 23.1152 11.298 23.091 11.2738L22.7522 10.9478C22.7268 10.9223 22.7331 10.8917 22.765 10.879L23.0987 10.7478C23.1305 10.7351 23.1356 10.7032 23.1114 10.679L22.7905 10.3645C22.765 10.339 22.7713 10.3084 22.8032 10.2957L23.1241 10.1454C23.156 10.1327 23.1687 10.0957 23.1432 10.0703L22.8987 9.7124C22.8796 9.68056 22.886 9.65 22.9178 9.63726L23.1496 9.53028C23.1814 9.51755 23.1865 9.48061 23.1687 9.45514L22.9611 9.17878C22.942 9.15331 22.9484 9.11638 22.9802 9.09727L23.2005 8.9661C23.2324 8.94699 23.2375 8.91006 23.2196 8.87822L22.9624 8.47577C22.9433 8.44394 22.9496 8.407 22.9815 8.3879L23.2884 8.16248C23.3139 8.14337 23.3203 8.10007 23.3012 8.0746L23.0808 7.7855C23.0617 7.76003 23.0681 7.7231 23.0999 7.704L23.3699 7.54607C23.4018 7.52697 23.4145 7.49004 23.3954 7.4582L23.1942 7.04302C23.1814 7.01118 23.1942 6.97424 23.226 6.96151L23.4833 6.84179C23.5151 6.82906 23.5278 6.79213 23.5087 6.76029L23.3139 6.44572C23.2948 6.41388 23.3075 6.38331 23.3394 6.37694L23.5839 6.30817C23.6157 6.3018 23.6336 6.2636 23.6208 6.23303L23.4578 5.76818C23.4451 5.73634 23.4642 5.70578 23.4947 5.69304L23.7342 5.637C23.766 5.63064 23.7838 5.60007 23.766 5.56823L23.6157 5.27277C23.5966 5.24093 23.6157 5.20399 23.6476 5.19126L23.8921 5.08428C23.9239 5.07154 23.9418 5.03461 23.9367 4.9964L23.831 4.54938C23.8246 4.51754 23.8437 4.48061 23.8755 4.46151L24.0882 4.37363C24.12 4.3609 24.1379 4.37363 24.1251 4.41056C24.1251 4.41056 23.7291 5.79238 23.5406 6.80995C23.4463 7.32447 23.2145 8.67572 23.1509 11.3069C23.1203 12.6938 23.2897 16.526 23.2897 16.526Z" stroke="white" stroke-width="0.25" stroke-miterlimit="10"/>
<path d="M22.7 12.1793C22.6746 12.1538 22.6809 12.1296 22.7128 12.1169L23.077 11.9908C23.1089 11.9781 23.114 11.9539 23.0898 11.9284L22.7191 11.5514C22.6937 11.5259 22.7 11.4954 22.7319 11.4826L23.0834 11.3438C23.1152 11.3311 23.1203 11.2993 23.0961 11.2751L22.7574 10.949C22.7319 10.9236 22.7382 10.893 22.7701 10.8803L23.1038 10.7491C23.1356 10.7363 23.1407 10.7045 23.1165 10.6803L22.7956 10.3657C22.7701 10.3403 22.7765 10.3097 22.8083 10.297L23.1292 10.1467C23.1611 10.1339 23.1738 10.097 23.1483 10.0715L22.9038 9.71367C22.8847 9.68183 22.8911 9.65127 22.9229 9.63853L23.1547 9.53155C23.1865 9.51882 23.1916 9.48188 23.1738 9.45641L22.9662 9.18005C22.9471 9.15458 22.9535 9.11764 22.9853 9.09854L23.2056 8.96736C23.2375 8.94826 23.2426 8.91133 23.2247 8.87949L22.9675 8.47704C22.9484 8.4452 22.9548 8.40827 22.9866 8.38917L23.2935 8.16375C23.319 8.14464 23.3254 8.10134 23.3063 8.07587L23.0859 7.78677C23.0668 7.7613 23.0732 7.72437 23.105 7.70526L23.375 7.54734C23.4069 7.52824 23.4196 7.49131 23.4005 7.45947L23.1993 7.04429C23.1865 7.01245 23.1993 6.97551 23.2311 6.96278L23.4884 6.84306C23.5202 6.83033 23.533 6.79339 23.5139 6.76156L23.319 6.44699C23.2999 6.41515 23.3126 6.38458 23.3445 6.37821L23.589 6.30944C23.6208 6.30307 23.6387 6.26487 23.6259 6.2343L23.4629 5.76945C23.4502 5.73761 23.4693 5.70705 23.4998 5.69431L23.7393 5.63827C23.7711 5.63191 23.7889 5.60134 23.7711 5.5695L23.6208 5.27403C23.6017 5.2422 23.6208 5.20526 23.6527 5.19253L23.8972 5.08555C23.929 5.07281 23.9469 5.03588 23.9418 4.99767L23.8412 4.55829C23.8348 4.52645 23.8539 4.48952 23.8857 4.47042L24.0984 4.38254C24.1303 4.36981 24.1481 4.38891 24.143 4.41948C24.143 4.41948 23.4655 7.17674 23.2757 8.92916C23.1369 10.2664 23.1369 12.5155 23.1369 12.5155C23.1369 12.5473 23.1178 12.5601 23.0923 12.5346L22.7 12.1793Z" fill="white" stroke="white" stroke-width="0.25" stroke-miterlimit="10"/>
<path d="M22.7 12.1793C22.6746 12.1538 22.6809 12.1296 22.7128 12.1169L23.077 11.9908C23.1089 11.9781 23.114 11.9539 23.0898 11.9284L22.7191 11.5514C22.6937 11.526 22.7 11.4954 22.7319 11.4826L23.0834 11.3438C23.1152 11.3311 23.1203 11.2993 23.0961 11.2751L22.7574 10.949C22.7319 10.9236 22.7382 10.893 22.7701 10.8803L23.1038 10.7491C23.1356 10.7363 23.1407 10.7045 23.1165 10.6803L22.7956 10.3657C22.7701 10.3403 22.7765 10.3097 22.8083 10.297L23.1292 10.1467C23.1611 10.1339 23.1738 10.097 23.1483 10.0715L22.9038 9.71367C22.8847 9.68183 22.8911 9.65127 22.9229 9.63853L23.1547 9.53155C23.1865 9.51882 23.1916 9.48188 23.1738 9.45641L22.9662 9.18005C22.9471 9.15458 22.9535 9.11764 22.9853 9.09854L23.2056 8.96736C23.2375 8.94826 23.2426 8.91133 23.2247 8.87949L22.9675 8.47704C22.9484 8.4452 22.9548 8.40827 22.9866 8.38917L23.2935 8.16375C23.319 8.14464 23.3254 8.10134 23.3063 8.07587L23.0859 7.78677C23.0668 7.7613 23.0732 7.72437 23.105 7.70526L23.375 7.54734C23.4069 7.52824 23.4196 7.49131 23.4005 7.45947L23.1993 7.04429C23.1865 7.01245 23.1993 6.97551 23.2311 6.96278L23.4884 6.84306C23.5202 6.83033 23.533 6.79339 23.5139 6.76156L23.319 6.44699C23.2999 6.41515 23.3126 6.38458 23.3445 6.37821L23.589 6.30944C23.6208 6.30307 23.6387 6.26487 23.6259 6.2343L23.4629 5.76945C23.4502 5.73761 23.4693 5.70705 23.4998 5.69431L23.7393 5.63827C23.7711 5.63191 23.7889 5.60134 23.7711 5.5695L23.6208 5.27403C23.6017 5.2422 23.6208 5.20526 23.6527 5.19253L23.8972 5.08555C23.929 5.07281 23.9469 5.03588 23.9418 4.99767L23.8412 4.55829C23.8348 4.52645 23.8539 4.48952 23.8857 4.47042L24.0984 4.38254C24.1303 4.36981 24.1481 4.38891 24.143 4.41948C24.143 4.41948 23.4655 7.17674 23.2757 8.92916C23.1369 10.2664 23.1369 12.5155 23.1369 12.5155C23.1369 12.5473 23.1178 12.5601 23.0923 12.5346L22.7 12.1793Z" stroke="white" stroke-width="0.25" stroke-miterlimit="10"/>
<path d="M20.0435 18.1969C20.0435 18.2288 20.0753 18.2593 20.1059 18.2593H23.6922C23.724 18.2593 23.7546 18.2338 23.7546 18.1969L23.7049 16.2242C23.7049 16.1923 23.6922 16.1872 23.6795 16.2178L23.4668 16.8138C23.4541 16.8457 23.435 16.8457 23.4222 16.8138L23.2528 16.3044C23.2401 16.2726 23.221 16.2726 23.2083 16.3044L23.007 16.7629C22.9943 16.7947 22.9701 16.7947 22.9574 16.7629L22.7498 16.2293C22.737 16.1974 22.7179 16.1974 22.7052 16.2293L22.5167 16.8317C22.504 16.8635 22.4849 16.8635 22.4721 16.8317L22.2327 16.2662C22.22 16.2344 22.1958 16.2344 22.183 16.2662L21.9627 16.8317C21.95 16.8635 21.9309 16.8635 21.9181 16.8317L21.6736 16.2165C21.6609 16.1847 21.6418 16.1847 21.629 16.2165L21.3972 16.8317C21.3845 16.8635 21.3654 16.8635 21.3527 16.8317L21.0954 16.172C21.0827 16.1401 21.0636 16.1401 21.0585 16.172L20.8764 16.8495C20.87 16.8813 20.8509 16.8813 20.8394 16.8495L20.6191 16.2025C20.6064 16.1707 20.5936 16.1707 20.5822 16.2025L20.4243 16.8699C20.4179 16.9017 20.3988 16.9068 20.3797 16.8762L20.0727 16.2356C20.06 16.2038 20.0473 16.2038 20.0473 16.242L20.0435 18.1969Z" stroke="white" stroke-width="0.25" stroke-miterlimit="10"/>
<path d="M1.68529 11.9781C1.63562 11.9526 1.22681 11.7463 1.22681 11.4763C1.23317 11.1745 1.7235 10.9109 2.1374 10.9236C2.47108 10.93 2.51438 11.1121 3.39313 11.5082C3.78921 11.6903 4.03374 11.7718 4.22222 11.6521C4.32284 11.5897 4.3725 11.4891 4.40434 11.4076" stroke="white" stroke-width="0.25" stroke-miterlimit="10"/>
<path d="M9.83118 10.9173L11.3123 9.83734" stroke="white" stroke-width="0.25" stroke-miterlimit="10"/>
<path d="M6.8854 11.8839C6.79752 13.0148 7.05478 13.7051 7.32478 14.133C7.71449 14.7482 7.79599 14.9685 7.95901 15.4079C7.95901 15.4079 8.04688 15.6396 8.02778 16.2497C8.02778 16.2866 8.00868 16.3439 7.97175 16.4076C7.95264 16.4445 7.8775 16.5655 7.76415 16.5897C7.63807 16.6216 7.49416 16.5451 7.40628 16.4076" stroke="white" stroke-width="0.25" stroke-miterlimit="10"/>
<path d="M6.89199 12.5245H7.71471C7.85353 12.55 7.9656 12.6443 8.01017 12.7754C8.07258 12.9703 7.94777 13.1206 7.93503 13.1333C7.879 13.253 7.70325 13.5918 7.3008 13.7994C7.04991 13.9255 6.82321 13.9497 6.68567 13.9497" stroke="white" stroke-width="0.25" stroke-miterlimit="10"/>
<path d="M6.61554 11.2624C6.91737 11.2815 7.16827 11.3121 7.35039 11.3439C7.69552 11.3999 7.8649 11.4254 8.04702 11.5133C8.09669 11.5388 8.34249 11.6636 8.57428 11.9285C8.70545 12.0787 8.81371 12.2736 8.81371 12.2736C8.83281 12.3054 8.81371 12.3233 8.78187 12.3182C8.78187 12.3182 8.57428 12.2863 8.36669 12.4124C8.31702 12.4443 8.12726 12.5563 8.08396 12.7703C8.02792 13.0467 8.27244 13.2797 8.36032 13.3612C8.52333 13.5115 8.73729 13.5815 8.73729 13.5815C8.76913 13.5943 8.7997 13.6312 8.7997 13.6631C8.7997 13.6631 8.7997 13.8133 8.7997 13.9203" stroke="white" stroke-width="0.25" stroke-miterlimit="10"/>
<path d="M11.6958 10.1952C11.7276 10.227 11.8907 10.3964 11.8779 10.6473C11.8652 10.8867 11.6958 11.0931 11.4576 11.1809" stroke="white" stroke-width="0.25" stroke-miterlimit="10"/>
<path d="M12.4066 9.6615L12.3442 10.3021C12.5454 10.3963 12.6587 10.609 12.6333 10.823C12.6014 11.0484 12.4206 11.2382 12.1812 11.2624" stroke="white" stroke-width="0.25" stroke-miterlimit="10"/>
<path d="M13.5675 10.6918L13.2657 11.0064C13.4605 11.1694 13.5994 11.3706 13.5484 11.5031C13.486 11.661 13.1218 11.7285 12.6569 11.5719L13.4427 12.0494C13.6681 12.2443 13.9521 12.2379 14.0769 12.0991C14.1839 11.9858 14.1585 11.81 14.1521 11.7782" stroke="white" stroke-width="0.25" stroke-miterlimit="10"/>
<path d="M13.8442 11.4382C13.9754 11.5261 14.1396 11.5006 14.2148 11.4063C14.2899 11.3121 14.2594 11.186 14.2517 11.1746" stroke="white" stroke-width="0.25" stroke-miterlimit="10"/>
<path d="M14.4223 12.0851L14.8362 11.9718" stroke="white" stroke-width="0.25" stroke-miterlimit="10"/>
<path d="M12.908 11.8215C13.0213 11.903 13.2034 12.061 13.3473 12.331C13.4671 12.5564 13.5104 12.764 13.5231 12.8964C13.5919 13.0467 13.7485 13.1167 13.8619 13.0722C13.9625 13.0352 13.993 12.9142 14.0007 12.8964" stroke="white" stroke-width="0.25" stroke-miterlimit="10"/>
<path d="M14.2645 12.8391C14.3956 12.9779 14.5981 13.0085 14.7421 12.927C14.9 12.8327 14.9178 12.6442 14.9178 12.6251" stroke="white" stroke-width="0.25" stroke-miterlimit="10"/>
<path d="M14.3026 13.3103L14.6299 13.6363" stroke="white" stroke-width="0.25" stroke-miterlimit="10"/>
<path d="M13.8444 13.3981C13.7999 13.5484 13.8444 13.7051 13.9514 13.8006C14.0584 13.8948 14.1908 13.8885 14.215 13.8821" stroke="white" stroke-width="0.25" stroke-miterlimit="10"/>
<path d="M13.0533 13.0773C13.0342 13.1218 12.9909 13.2594 13.0405 13.4288C13.0851 13.5867 13.1845 13.6733 13.2227 13.7051" stroke="white" stroke-width="0.25" stroke-miterlimit="10"/>
<path d="M12.6445 12.8581C12.5134 12.8454 12.3873 12.9397 12.3682 13.0708C12.3491 13.2097 12.4497 13.3345 12.5885 13.3536" stroke="white" stroke-width="0.25" stroke-miterlimit="10"/>
<path d="M11.7147 12.6888C11.5759 12.6824 11.4574 12.7958 11.4638 12.9282C11.4638 13.0594 11.5708 13.1677 11.7083 13.1677" stroke="white" stroke-width="0.25" stroke-miterlimit="10"/>
<path d="M12.0422 13.3918C12.0231 13.4109 11.9607 13.4988 11.9734 13.6045C11.9862 13.7306 12.0868 13.8363 12.2243 13.8808" stroke="white" stroke-width="0.25" stroke-miterlimit="10"/>
<path d="M11.2565 13.2975C11.2501 13.3166 11.2119 13.5179 11.3571 13.6682C11.4832 13.807 11.6589 13.807 11.6831 13.807" stroke="white" stroke-width="0.25" stroke-miterlimit="10"/>
<path d="M10.5903 13.2352C10.5024 13.323 10.496 13.467 10.5776 13.5688C10.6591 13.6631 10.803 13.6822 10.9112 13.6134" stroke="white" stroke-width="0.25" stroke-miterlimit="10"/>
<path d="M10.6602 13.9573C10.6971 14.1076 10.8232 14.2273 10.9747 14.2527C11.1135 14.2718 11.2511 14.2209 11.339 14.1139" stroke="white" stroke-width="0.25" stroke-miterlimit="10"/>
<path d="M10.1331 14.7163C10.2528 14.8169 10.4158 14.836 10.5407 14.7723C10.6604 14.7099 10.7037 14.5902 10.7164 14.5596" stroke="white" stroke-width="0.25" stroke-miterlimit="10"/>
<path d="M11.0497 14.7112C11.1937 14.8615 11.414 14.887 11.5706 14.7864C11.6903 14.7112 11.7527 14.5661 11.74 14.4158" stroke="white" stroke-width="0.25" stroke-miterlimit="10"/>
<path d="M12.6569 13.6618L12.7703 13.8248" stroke="white" stroke-width="0.25" stroke-miterlimit="10"/>
<path d="M11.432 17.5436C11.1874 17.3424 10.892 17.0597 10.6029 16.6763C10.3074 16.2866 10.1125 15.916 9.98773 15.6205C10.515 15.846 10.9493 15.8409 11.0613 15.6575C11.0868 15.6205 11.1174 15.5314 11.055 15.362" stroke="white" stroke-width="0.25" stroke-miterlimit="10"/>
<path d="M11.3887 15.5276C11.609 15.6778 11.8854 15.6715 12.0547 15.5276C12.2178 15.3887 12.2178 15.1824 12.2178 15.1442" stroke="white" stroke-width="0.25" stroke-miterlimit="10"/>
<path d="M10.911 16.4572C11.1313 16.5324 11.2498 16.5018 11.3186 16.4509C11.4192 16.3821 11.4319 16.2624 11.5134 16.256C11.5949 16.2496 11.6013 16.3821 11.721 16.4318C11.8713 16.4942 12.0598 16.363 12.1413 16.3057C12.2546 16.2305 12.3234 16.1363 12.3616 16.0803" stroke="white" stroke-width="0.25" stroke-miterlimit="10"/>
<path d="M12.6569 16.2739C12.783 16.3299 12.9205 16.3108 13.0148 16.2293C13.1281 16.1223 13.1536 15.9338 13.0517 15.7899" stroke="white" stroke-width="0.25" stroke-miterlimit="10"/>
<path d="M11.7146 17.173C11.8343 17.2482 11.991 17.2176 12.0725 17.1233C12.1349 17.0418 12.1476 16.9221 12.0979 16.8279" stroke="white" stroke-width="0.25" stroke-miterlimit="10"/>
<path d="M12.4062 17.3985C12.4381 17.3921 12.6011 17.3667 12.7017 17.2227C12.8023 17.0839 12.8023 16.8891 12.7145 16.7324" stroke="white" stroke-width="0.25" stroke-miterlimit="10"/>
<path d="M13.1782 16.8712C13.354 16.9718 13.5552 16.8967 13.6176 16.7642C13.68 16.6254 13.5921 16.4191 13.3922 16.3618" stroke="white" stroke-width="0.25" stroke-miterlimit="10"/>
<path d="M12.9462 17.9384C13.0723 17.9384 13.1857 17.8697 13.229 17.7627C13.2735 17.6621 13.2353 17.5615 13.229 17.5424" stroke="white" stroke-width="0.25" stroke-miterlimit="10"/>
<path d="M13.825 17.5436C13.8504 17.5436 13.9752 17.5308 14.0504 17.4302C14.1382 17.3169 14.1255 17.1284 14.0007 16.9908" stroke="white" stroke-width="0.25" stroke-miterlimit="10"/>
<path d="M14.2212 16.7336L14.3027 16.1923" stroke="white" stroke-width="0.25" stroke-miterlimit="10"/>
<path d="M14.1205 18.5485C14.1702 18.4861 14.3281 18.2912 14.3218 18.0085C14.3218 17.8888 14.2899 17.7958 14.2594 17.7321" stroke="white" stroke-width="0.25" stroke-miterlimit="10"/>
<path d="M14.6299 17.4684C14.7687 17.4557 14.8871 17.3678 14.9368 17.243C14.9992 17.0991 14.9559 16.9284 14.8362 16.8227" stroke="white" stroke-width="0.25" stroke-miterlimit="10"/>
<path d="M15.0502 16.5439V15.9797" stroke="white" stroke-width="0.25" stroke-miterlimit="10"/>
<path d="M15.3456 16.7336C15.3952 16.8151 15.4462 16.9221 15.4959 17.0405C15.5455 17.1717 15.5774 17.2978 15.5901 17.3984" stroke="white" stroke-width="0.25" stroke-miterlimit="10"/>
<path d="M15.1699 17.6251L15.245 18.2403" stroke="white" stroke-width="0.25" stroke-miterlimit="10"/>
<path d="M15.5901 15.8918C15.7099 15.8918 15.8156 15.9606 15.8665 16.0612C15.9225 16.1745 15.8729 16.2866 15.8665 16.3057" stroke="white" stroke-width="0.25" stroke-miterlimit="10"/>
<path d="M16.074 16.7705C16.2128 16.8775 16.2625 17.0532 16.2128 17.1908C16.1568 17.3347 16.018 17.3856 15.9925 17.3984" stroke="white" stroke-width="0.25" stroke-miterlimit="10"/>
<path d="M16.5136 17.7322C16.5391 17.7194 16.6524 17.6634 16.7021 17.5309C16.7518 17.4049 16.7148 17.2546 16.6206 17.1412" stroke="white" stroke-width="0.25" stroke-miterlimit="10"/>
<path d="M16.6141 16.7337V16.3682" stroke="white" stroke-width="0.25" stroke-miterlimit="10"/>
<path d="M16.5633 16.0981L16.306 16.0485" stroke="white" stroke-width="0.25" stroke-miterlimit="10"/>
<path d="M16.7644 15.5212L17.0344 16.074" stroke="white" stroke-width="0.25" stroke-miterlimit="10"/>
<path d="M17.0345 16.3121C17.3414 16.4254 17.4611 16.7018 17.3924 16.8521C17.3427 16.959 17.1911 17.0151 17.0345 17.0151" stroke="white" stroke-width="0.25" stroke-miterlimit="10"/>
<path d="M17.9016 16.9221C17.9334 16.9094 18.0404 16.8406 18.071 16.7209C18.1079 16.5706 18.0022 16.3821 17.801 16.3057" stroke="white" stroke-width="0.25" stroke-miterlimit="10"/>
<path d="M17.4241 15.7975C17.5374 15.7479 17.6253 15.6587 17.6253 15.5721C17.6253 15.446 17.4432 15.3021 17.1668 15.3212" stroke="white" stroke-width="0.25" stroke-miterlimit="10"/>
<path d="M17.9833 14.8424C18.0088 14.8424 18.1527 14.8551 18.2533 14.9736C18.3412 15.0806 18.3603 15.2308 18.303 15.3633" stroke="white" stroke-width="0.25" stroke-miterlimit="10"/>
<path d="M17.9833 15.7912C18.1413 15.7542 18.2597 15.8357 18.2724 15.9109C18.2788 15.9669 18.2228 16.037 18.1464 16.0739" stroke="white" stroke-width="0.25" stroke-miterlimit="10"/>
<path d="M18.6926 15.6409C18.9244 15.7224 19.0377 15.9173 18.9995 16.0485C18.9677 16.1363 18.8683 16.1796 18.8301 16.1988" stroke="white" stroke-width="0.25" stroke-miterlimit="10"/>
<path d="M19.5102 15.9797C19.5293 15.9606 19.6299 15.86 19.6299 15.7224C19.6299 15.5645 19.5166 15.4206 19.3408 15.3709" stroke="white" stroke-width="0.25" stroke-miterlimit="10"/>
<path d="M18.964 15.1379C18.9767 15.1188 19.0391 15.0118 18.9958 14.887C18.9589 14.7673 18.8328 14.6794 18.6889 14.6794" stroke="white" stroke-width="0.25" stroke-miterlimit="10"/>
<path d="M19.271 14.3342L19.4213 14.6296" stroke="white" stroke-width="0.25" stroke-miterlimit="10"/>
<path d="M19.6784 14.6297C19.7727 14.6743 19.8287 14.7609 19.8287 14.8615C19.8287 14.9812 19.7345 15.0869 19.6084 15.1124" stroke="white" stroke-width="0.25" stroke-miterlimit="10"/>
<path d="M20.151 14.4094C20.1574 14.3903 20.2198 14.2591 20.151 14.1267C20.095 14.0133 19.9689 13.9445 19.8301 13.9509" stroke="white" stroke-width="0.25" stroke-miterlimit="10"/>
<path d="M20.1507 15.1379C20.1825 15.1442 20.2819 15.1634 20.3392 15.2449C20.4143 15.3582 20.3889 15.5403 20.2577 15.6715" stroke="white" stroke-width="0.25" stroke-miterlimit="10"/>
<path d="M16.5391 18.5981C16.5519 18.4784 16.6079 18.1269 16.897 17.8187C17.223 17.4672 17.6318 17.4112 17.7452 17.3984" stroke="white" stroke-width="0.25" stroke-miterlimit="10"/>
<path d="M16.9032 18.0772C16.972 18.2084 17.1108 18.2975 17.2547 18.2975C17.4368 18.2975 17.5438 18.1664 17.5616 18.1472C17.5247 17.997 17.5807 17.8403 17.7004 17.7575C17.8393 17.6569 18.0392 17.676 18.1653 17.8072" stroke="white" stroke-width="0.25" stroke-miterlimit="10"/>
<path d="M17.009 19.2017L17.0408 18.6796" stroke="white" stroke-width="0.25" stroke-miterlimit="10"/>
<path d="M17.7501 19.2336V18.5485" stroke="white" stroke-width="0.25" stroke-miterlimit="10"/>
<path d="M19.0072 18.2402C18.8633 18.2402 18.7181 18.2402 18.5742 18.2402" stroke="white" stroke-width="0.25" stroke-miterlimit="10"/>
<path d="M18.2725 18.1396C18.2661 18.2212 18.2101 18.2976 18.1336 18.3281C18.0394 18.3651 17.9261 18.3281 17.8636 18.2403" stroke="white" stroke-width="0.25" stroke-miterlimit="10"/>
<path d="M16.4002 19.9048H16.9033" stroke="white" stroke-width="0.25" stroke-miterlimit="10"/>
<path d="M17.223 19.9048H17.7452" stroke="white" stroke-width="0.25" stroke-miterlimit="10"/>
<path d="M18.3666 19.7354H17.9387" stroke="white" stroke-width="0.25" stroke-miterlimit="10"/>
<path d="M18.7563 19.3393L18.285 19.2896V18.6796" stroke="white" stroke-width="0.25" stroke-miterlimit="10"/>
<path d="M3.98938 17.9333V17.4048" stroke="white" stroke-width="0.25" stroke-miterlimit="10"/>
<path d="M6.35822 19.3775L6.99882 19.2387" stroke="white" stroke-width="0.25" stroke-miterlimit="10"/>
<path d="M4.10907 16.8279L4.4109 16.5006" stroke="white" stroke-width="0.25" stroke-miterlimit="10"/>
<path d="M5.07562 16.3809L5.52774 16.1809" stroke="white" stroke-width="0.25" stroke-miterlimit="10"/>
<path d="M6.13788 16.5948H6.70207" stroke="white" stroke-width="0.25" stroke-miterlimit="10"/>
<path d="M7.09186 18.0467V18.3473" stroke="white" stroke-width="0.25" stroke-miterlimit="10"/>
<path d="M7.38717 17.7818L7.32477 17.5054" stroke="white" stroke-width="0.25" stroke-miterlimit="10"/>
<path d="M7.71338 17.9511L7.75795 18.2962" stroke="white" stroke-width="0.25" stroke-miterlimit="10"/>
<path d="M8.48004 17.5818C8.47367 17.6378 8.46731 17.7639 8.52462 17.8964C8.56919 18.0097 8.63796 18.0912 8.68254 18.1281" stroke="white" stroke-width="0.25" stroke-miterlimit="10"/>
<path d="M7.90289 17.5818C7.90289 17.5945 7.90289 17.6697 7.95893 17.7257C8.0277 17.7945 8.12195 17.7817 8.13468 17.7817" stroke="white" stroke-width="0.25" stroke-miterlimit="10"/>
<path d="M8.73214 17.1857C8.72577 17.2176 8.71303 17.28 8.73214 17.3615C8.75761 17.4685 8.83275 17.5309 8.85822 17.55" stroke="white" stroke-width="0.25" stroke-miterlimit="10"/>
<path d="M9.27844 17.4048C9.29118 17.4112 9.35358 17.4545 9.37269 17.5309C9.39179 17.606 9.35995 17.6697 9.35358 17.6811" stroke="white" stroke-width="0.25" stroke-miterlimit="10"/>
<path d="M9.69884 16.5006C9.65426 16.5821 9.65426 16.6827 9.69884 16.7579C9.76124 16.8585 9.88096 16.8712 9.89369 16.8712" stroke="white" stroke-width="0.25" stroke-miterlimit="10"/>
<path d="M9.54834 17.0787C9.64258 17.2226 9.76867 17.3806 9.88711 17.3615C10.0183 17.336 10.0629 17.1042 10.1507 17.1169C10.1953 17.1233 10.2259 17.1857 10.3265 17.4939C10.3711 17.6327 10.408 17.7512 10.4335 17.8327" stroke="white" stroke-width="0.25" stroke-miterlimit="10"/>
<path d="M23.2966 15.2831C23.4723 15.3455 23.6672 15.264 23.7423 15.1073C23.8111 14.9685 23.7742 14.7927 23.6544 14.6807" stroke="white" stroke-width="0.25" stroke-miterlimit="10"/>
<path d="M23.6481 14.0948C23.6799 14.063 23.7792 13.9751 23.8111 13.8248C23.8557 13.6236 23.7551 13.4669 23.7359 13.4415" stroke="white" stroke-width="0.25" stroke-miterlimit="10"/>
<path d="M24.4084 13.8439L24.4963 13.3663" stroke="white" stroke-width="0.25" stroke-miterlimit="10"/>
<path d="M24.4083 14.1827C24.4146 14.189 24.5522 14.3406 24.4961 14.5405C24.4465 14.7227 24.2758 14.7851 24.2567 14.7914" stroke="white" stroke-width="0.25" stroke-miterlimit="10"/>
<path d="M25.0872 14.4782C25.2374 14.4527 25.3508 14.3279 25.3699 14.1827C25.389 14.0439 25.3139 13.9063 25.1941 13.8439" stroke="white" stroke-width="0.25" stroke-miterlimit="10"/>
<path d="M25.8591 13.8439C25.947 13.8885 25.9903 13.9828 25.9661 14.0643C25.9406 14.1267 25.8782 14.1776 25.803 14.184" stroke="white" stroke-width="0.25" stroke-miterlimit="10"/>
<path d="M24.9101 14.9303C25.0234 15.0182 25.0731 15.1557 25.0413 15.2882C25.0043 15.4461 24.8464 15.5645 24.6707 15.5582" stroke="white" stroke-width="0.25" stroke-miterlimit="10"/>
<path d="M25.608 15.283C25.7023 15.2958 25.7902 15.2512 25.8475 15.1761C25.9035 15.0946 25.9099 14.9939 25.8602 14.9061" stroke="white" stroke-width="0.25" stroke-miterlimit="10"/>
<path d="M26.2054 14.9812C26.3557 15.0755 26.5505 15.0258 26.6384 14.8806C26.7135 14.7494 26.6702 14.566 26.5314 14.4781" stroke="white" stroke-width="0.25" stroke-miterlimit="10"/>
<path d="M26.0411 15.6409C26.1036 15.7415 26.1227 15.8613 26.073 15.9555C25.9978 16.0943 25.7966 16.1567 25.6145 16.0625" stroke="white" stroke-width="0.25" stroke-miterlimit="10"/>
<path d="M25.608 16.8151C25.9595 16.9157 26.2741 16.8215 26.3798 16.6203C26.3989 16.5833 26.4359 16.4942 26.4117 16.3503" stroke="white" stroke-width="0.25" stroke-miterlimit="10"/>
<path d="M26.5315 15.8472C26.5379 15.8472 26.7009 15.8408 26.7824 15.7033C26.8639 15.5594 26.7888 15.4142 26.7824 15.4142" stroke="white" stroke-width="0.25" stroke-miterlimit="10"/>
<path d="M27.1224 15.7593C27.223 15.8039 27.3427 15.7784 27.4178 15.7033C27.493 15.6281 27.5121 15.5084 27.4624 15.4142" stroke="white" stroke-width="0.25" stroke-miterlimit="10"/>
<path d="M27.2278 16.1923C27.2775 16.2866 27.2724 16.3999 27.2151 16.4878C27.1463 16.5948 27.0024 16.6381 26.8763 16.5948" stroke="white" stroke-width="0.25" stroke-miterlimit="10"/>
<path d="M26.9899 17.0787C26.9962 17.1284 27.0026 17.1984 26.958 17.2545C26.8829 17.3615 26.7262 17.3233 26.5123 17.3742C26.4117 17.3997 26.2729 17.443 26.1162 17.5563" stroke="white" stroke-width="0.25" stroke-miterlimit="10"/>
<path d="M27.3477 17.0036C27.4674 17.066 27.605 17.0405 27.6865 16.9476C27.7553 16.8724 27.7744 16.7527 27.7311 16.6521" stroke="white" stroke-width="0.25" stroke-miterlimit="10"/>
<path d="M27.6865 17.4685C27.7234 17.6315 27.6495 17.7945 27.5107 17.871C27.3528 17.9525 27.1529 17.8964 27.0522 17.7398" stroke="white" stroke-width="0.25" stroke-miterlimit="10"/>
<path d="M27.461 18.2402C27.4292 18.3408 27.3795 18.4033 27.3413 18.4478C27.0968 18.7051 26.6753 18.6057 26.6511 18.5981" stroke="white" stroke-width="0.25" stroke-miterlimit="10"/>
<path d="M27.6433 18.593C27.763 18.6427 27.9006 18.6249 28.0012 18.5484C28.1515 18.4351 28.1324 18.253 28.1324 18.2415" stroke="white" stroke-width="0.25" stroke-miterlimit="10"/>
<path d="M28.1334 17.8824C28.234 17.8824 28.3218 17.8327 28.3728 17.7512C28.4225 17.6634 28.4174 17.55 28.3601 17.4685" stroke="white" stroke-width="0.25" stroke-miterlimit="10"/>
<path d="M28.8302 18.2402C28.8366 18.2593 28.8557 18.4224 28.7424 18.5472C28.6481 18.6541 28.4978 18.6911 28.359 18.6541" stroke="white" stroke-width="0.25" stroke-miterlimit="10"/>
<path d="M28.1334 18.9942C28.1143 19.0757 28.0774 19.1954 27.9831 19.3088C27.7386 19.5979 27.3425 19.5724 27.2928 19.566" stroke="white" stroke-width="0.25" stroke-miterlimit="10"/>
<path d="M28.2391 19.566C28.434 19.6666 28.6658 19.6157 28.7982 19.4527C28.9179 19.3088 28.9294 19.1012 28.8301 18.9382" stroke="white" stroke-width="0.25" stroke-miterlimit="10"/>
<path d="M29.5282 19.1699C29.597 19.2514 29.6225 19.352 29.5843 19.4399C29.5346 19.5596 29.3639 19.6348 29.2009 19.566" stroke="white" stroke-width="0.25" stroke-miterlimit="10"/>
<path d="M28.931 19.8666C28.9374 19.892 28.9679 20.0245 28.8864 20.1493C28.8113 20.2627 28.6737 20.3187 28.5349 20.2996" stroke="white" stroke-width="0.25" stroke-miterlimit="10"/>
<path d="M29.3639 20.3008C29.4772 20.376 29.6275 20.3696 29.7218 20.2881C29.8351 20.1939 29.8529 20.0054 29.7536 19.8729" stroke="white" stroke-width="0.25" stroke-miterlimit="10"/>
<path d="M30.3558 20.0869L30.431 19.7354" stroke="white" stroke-width="0.25" stroke-miterlimit="10"/>
<path d="M30.1803 20.3008C30.1931 20.3327 30.2491 20.5517 30.1243 20.7593C30.03 20.9096 29.8925 20.9669 29.8416 20.9797" stroke="white" stroke-width="0.25" stroke-miterlimit="10"/>
<path d="M30.6257 20.7466C30.7391 20.7402 30.8384 20.6715 30.8766 20.5708C30.9263 20.432 30.8397 20.3136 30.832 20.3008" stroke="white" stroke-width="0.25" stroke-miterlimit="10"/>
<path d="M31.3239 19.7354C31.4678 19.8233 31.4996 19.8933 31.4996 19.943C31.4996 20.0563 31.3366 20.0933 31.3239 20.2385C31.3175 20.32 31.3608 20.3518 31.4117 20.4894C31.4563 20.6154 31.4678 20.7288 31.4678 20.8039" stroke="white" stroke-width="0.25" stroke-miterlimit="10"/>
<path d="M31.9454 20.6396C32.1148 20.6587 32.2524 20.5517 32.2715 20.4193C32.2842 20.325 32.2269 20.2244 32.1326 20.1684" stroke="white" stroke-width="0.25" stroke-miterlimit="10"/>
<path d="M31.9453 19.8666L31.8702 19.7354" stroke="white" stroke-width="0.25" stroke-miterlimit="10"/>
<path d="M32.316 19.7354C32.3351 19.7226 32.4357 19.6284 32.4357 19.4845C32.4357 19.3533 32.3542 19.2336 32.2281 19.1699" stroke="white" stroke-width="0.25" stroke-miterlimit="10"/>
<path d="M31.5557 18.9318C31.4054 18.9509 31.1851 18.9687 30.9087 18.9764C30.4935 18.9891 30.2745 19.0018 30.2554 18.9318C30.2184 18.8006 30.9648 18.467 30.9406 18.4109C30.9278 18.3791 30.7151 18.4924 30.4197 18.4861C30.2184 18.4797 30.0682 18.4173 29.9612 18.3663C29.8173 18.3039 29.4339 18.1027 28.9372 17.4621C28.6163 17.0469 28.359 16.5579 28.4469 16.4827C28.5221 16.4203 28.736 16.6954 29.0684 16.6585C29.3575 16.6267 29.546 16.3376 29.5269 16.3197C29.5142 16.3006 29.332 16.5018 29.0939 16.4955C28.8863 16.4891 28.7296 16.3325 28.6227 16.2" stroke="white" stroke-width="0.25" stroke-miterlimit="10"/>
<path d="M32.7998 19.4526C32.9258 19.5087 33.0074 19.6348 33.0124 19.7672C33.0124 19.9251 32.8991 20.069 32.7361 20.106C32.7679 20.1378 32.8749 20.2499 32.894 20.432C32.9131 20.6205 32.8252 20.758 32.7998 20.7962" stroke="white" stroke-width="0.25" stroke-miterlimit="10"/>
<path d="M33.5411 19.4526C33.5781 19.459 33.7296 19.4972 33.8302 19.6348C33.9742 19.836 33.8926 20.0614 33.8799 20.0805" stroke="white" stroke-width="0.25" stroke-miterlimit="10"/>
<path d="M32.7997 18.7688L33.2519 18.9879" stroke="white" stroke-width="0.25" stroke-miterlimit="10"/>
<path d="M33.7104 18.4542C33.7104 18.4351 33.7168 18.3409 33.648 18.2657C33.5729 18.1906 33.4532 18.1779 33.3462 18.2339" stroke="white" stroke-width="0.25" stroke-miterlimit="10"/>
<path d="M33.9994 18.8808C34.0185 18.8744 34.2439 18.8311 34.4069 18.9814C34.5508 19.1126 34.5827 19.3393 34.4884 19.5341" stroke="white" stroke-width="0.25" stroke-miterlimit="10"/>
<path d="M34.3002 18.4542C34.3447 18.3664 34.3447 18.2658 34.2938 18.1906C34.2314 18.0964 34.118 18.0518 34.0047 18.0836" stroke="white" stroke-width="0.25" stroke-miterlimit="10"/>
<path d="M34.5956 17.9142C34.6452 17.8888 34.7089 17.8646 34.7904 17.8646C35.0604 17.8582 35.2234 18.1218 35.2362 18.1473" stroke="white" stroke-width="0.25" stroke-miterlimit="10"/>
<path d="M34.1498 17.5997C34.1689 17.4991 34.1435 17.4048 34.0811 17.3602C33.9868 17.2978 33.8047 17.3348 33.7104 17.5041" stroke="white" stroke-width="0.25" stroke-miterlimit="10"/>
<path d="M34.3 17.1602C34.3191 17.1474 34.4388 17.0787 34.5827 17.1232C34.7024 17.1602 34.7954 17.2672 34.8221 17.3996" stroke="white" stroke-width="0.25" stroke-miterlimit="10"/>
<path d="M33.9994 16.6891C34.0363 16.6573 34.1255 16.5949 34.2503 16.5821C34.4897 16.5567 34.6527 16.7452 34.6706 16.7643C34.7457 16.7273 34.9597 16.6382 35.2233 16.6827C35.3672 16.7082 35.4742 16.7706 35.5442 16.8139" stroke="white" stroke-width="0.25" stroke-miterlimit="10"/>
<path d="M34.9153 16.2051C34.8962 16.1796 34.8338 16.0918 34.7268 16.0663C34.5956 16.0345 34.4504 16.0854 34.3562 16.2051" stroke="white" stroke-width="0.25" stroke-miterlimit="10"/>
<path d="M33.7104 15.8295C33.7296 15.8103 33.8302 15.6715 34.0123 15.6601C34.1626 15.6473 34.2695 15.7161 34.295 15.7416" stroke="white" stroke-width="0.25" stroke-miterlimit="10"/>
<path d="M34.7714 15.5645C34.7968 15.4511 34.8529 15.3887 34.8783 15.3696C35.0172 15.2499 35.2553 15.2563 35.4629 15.3951" stroke="white" stroke-width="0.25" stroke-miterlimit="10"/>
<path d="M34.15 15.3455C34.1818 15.1761 34.2939 15.0436 34.42 15.0309C34.4951 15.0181 34.5588 15.05 34.5957 15.0678" stroke="white" stroke-width="0.25" stroke-miterlimit="10"/>
<path d="M34.4326 14.4094C34.4645 14.3724 34.546 14.2896 34.6835 14.2654C34.9229 14.2158 35.1038 14.3966 35.1165 14.4094" stroke="white" stroke-width="0.25" stroke-miterlimit="10"/>
<path d="M33.6032 15.1188C33.5663 14.9685 33.6223 14.8118 33.7344 14.7354C33.8478 14.6603 33.9789 14.6908 34.0044 14.6985" stroke="white" stroke-width="0.25" stroke-miterlimit="10"/>
<path d="M34.0251 14.1584C33.9373 14.0451 33.7743 14.0145 33.6609 14.0897C33.5539 14.1521 33.503 14.2845 33.5412 14.4106" stroke="white" stroke-width="0.25" stroke-miterlimit="10"/>
<path d="M33.7104 13.3421C33.685 13.3612 33.541 13.486 33.5283 13.7C33.5092 13.9203 33.6417 14.0642 33.6595 14.0897" stroke="white" stroke-width="0.25" stroke-miterlimit="10"/>
<path d="M32.9757 14.6973C32.875 14.5776 32.8687 14.4145 32.9502 14.3139C33.0253 14.2197 33.1578 14.2133 33.1756 14.2133" stroke="white" stroke-width="0.25" stroke-miterlimit="10"/>
<path d="M32.8 14.026C32.7681 14.0069 32.6866 13.9445 32.656 13.8439C32.6115 13.7051 32.6688 13.542 32.8 13.4363" stroke="white" stroke-width="0.25" stroke-miterlimit="10"/>
<path d="M32.4356 13.2607C32.3541 13.267 32.2726 13.2288 32.2343 13.1664C32.1847 13.0785 32.2152 12.9461 32.3286 12.8773" stroke="white" stroke-width="0.25" stroke-miterlimit="10"/>
<path d="M31.5557 13.1843C31.4614 13.3103 31.4487 13.4797 31.5302 13.5918C31.6053 13.7052 31.7251 13.723 31.7556 13.7306" stroke="white" stroke-width="0.25" stroke-miterlimit="10"/>
<path d="M32.2281 13.7688C32.1529 13.8439 32.1275 13.9509 32.1593 14.0515C32.2039 14.1712 32.3172 14.2145 32.3351 14.2145" stroke="white" stroke-width="0.25" stroke-miterlimit="10"/>
<path d="M32.0141 14.6972C31.9007 14.7418 31.7823 14.71 31.7123 14.6348C31.6307 14.5406 31.6498 14.4273 31.6562 14.4094" stroke="white" stroke-width="0.25" stroke-miterlimit="10"/>
<path d="M31.3237 14.4094C31.2983 14.4158 31.1607 14.4349 31.0537 14.347C30.9404 14.2527 30.9035 14.0643 30.9913 13.9012" stroke="white" stroke-width="0.25" stroke-miterlimit="10"/>
<path d="M30.5634 13.9942C30.5507 14.0006 30.4195 14.0261 30.324 13.9496C30.2298 13.8681 30.2043 13.7102 30.2871 13.579" stroke="white" stroke-width="0.25" stroke-miterlimit="10"/>
<path d="M29.8159 14.3406C29.8222 14.3661 29.8719 14.4986 30.0234 14.5661C30.1865 14.6348 30.338 14.5597 30.3571 14.5533" stroke="white" stroke-width="0.25" stroke-miterlimit="10"/>
<path d="M31.1543 14.8551C31.1416 14.8615 31.0232 14.9366 31.0104 15.05C31.0041 15.1811 31.1301 15.32 31.3174 15.3391" stroke="white" stroke-width="0.25" stroke-miterlimit="10"/>
<path d="M30.5635 15.2066C30.5266 15.2194 30.4502 15.2436 30.3687 15.2257C30.1674 15.1888 30.0923 14.9748 30.0859 14.9621" stroke="white" stroke-width="0.25" stroke-miterlimit="10"/>
<path d="M29.5906 15.2067C29.5843 15.3009 29.6276 15.3888 29.7104 15.4385C29.7982 15.4881 29.9116 15.4754 29.9931 15.413" stroke="white" stroke-width="0.25" stroke-miterlimit="10"/>
<path d="M30.426 15.6715C30.4387 15.7084 30.5075 15.8918 30.7087 15.9861C30.8844 16.074 31.0538 16.0357 31.0984 16.023" stroke="white" stroke-width="0.25" stroke-miterlimit="10"/>
<path d="M30.1431 15.9606C30.0985 16.0167 30.0425 16.074 29.9852 16.0676C29.8718 16.0549 29.854 15.8473 29.7343 15.8282C29.6273 15.8154 29.5713 15.9784 29.4579 15.9721C29.37 15.9657 29.3 15.8651 29.2631 15.7772" stroke="white" stroke-width="0.25" stroke-miterlimit="10"/>
<path d="M30.1432 16.3439C30.1687 16.5197 30.3012 16.6394 30.4323 16.633C30.5584 16.6267 30.6336 16.5133 30.645 16.5019" stroke="white" stroke-width="0.25" stroke-miterlimit="10"/>
<path d="M29.9917 16.8216C29.9917 16.8152 30.0108 16.7209 29.9598 16.6776C29.9102 16.6331 29.7841 16.6458 29.7026 16.7591" stroke="white" stroke-width="0.25" stroke-miterlimit="10"/>
<path d="M30.0859 17.1602C30.1229 17.2914 30.2299 17.3856 30.3496 17.3856C30.4693 17.3856 30.5508 17.2914 30.5623 17.2787" stroke="white" stroke-width="0.25" stroke-miterlimit="10"/>
<path d="M30.287 17.8823C30.2743 17.9014 30.2246 17.9829 30.1291 18.0084C30.0285 18.0339 29.9088 17.9829 29.8464 17.8823" stroke="white" stroke-width="0.25" stroke-miterlimit="10"/>
<path d="M29.7904 17.5054C29.8031 17.4366 29.7777 17.3666 29.7216 17.336C29.6529 17.2914 29.5459 17.3169 29.4962 17.3984" stroke="white" stroke-width="0.25" stroke-miterlimit="10"/>
<path d="M32.1019 21.2051L31.3161 21.3936C31.3912 21.619 31.5173 22.1157 31.3912 22.7258C31.26 23.3791 30.9136 23.7994 30.7506 23.9764C30.8194 23.9764 30.9264 23.9764 31.0525 23.9637C31.2409 23.9446 31.297 23.914 31.3543 23.9509C31.4422 24.0133 31.4613 24.2018 31.3912 24.3343C31.297 24.51 31.0843 24.4846 30.8894 24.5852C30.7073 24.6794 30.5061 24.8921 30.3991 25.4397C30.3622 25.8982 30.3176 26.3631 30.2794 26.8215C30.1788 26.7018 30.0718 26.5324 30.003 26.3198C29.8273 25.7861 29.9967 25.2589 30.0158 25.264C30.0285 25.264 29.9967 25.6155 29.8337 26.8967C29.7585 26.8215 29.6388 26.6764 29.5573 26.4764C29.2746 25.7861 29.677 24.994 29.6885 25.0004C29.6948 25.0004 29.607 25.2958 29.1357 26.8024" stroke="white" stroke-width="0.25" stroke-miterlimit="10"/>
<path d="M28.8239 25.5951L29.1449 24.8539" stroke="white" stroke-width="0.25" stroke-miterlimit="10"/>
<path d="M28.1513 26.0917H28.6977" stroke="white" stroke-width="0.25" stroke-miterlimit="10"/>
<path d="M28.8493 26.0917H29.3638" stroke="white" stroke-width="0.25" stroke-miterlimit="10"/>
<path d="M29.4708 26.0917H29.942H30.3432" stroke="white" stroke-width="0.25" stroke-miterlimit="10"/>
<path d="M29.9037 21.9209C30.287 22.0648 30.4628 22.0151 30.557 21.9463C30.6194 21.8967 30.6704 21.8075 30.72 21.8203C30.7824 21.8394 30.7646 21.9705 30.8589 22.0903C30.9276 22.1781 31.0282 22.2163 31.0983 22.2342" stroke="white" stroke-width="0.25" stroke-miterlimit="10"/>
<path d="M30.9596 22.4863C30.91 22.4494 30.8336 22.4418 30.7839 22.4736C30.7215 22.5105 30.6896 22.5869 30.7151 22.6621" stroke="white" stroke-width="0.25" stroke-miterlimit="10"/>
<path d="M30.3432 22.2354L30.5011 22.4863" stroke="white" stroke-width="0.25" stroke-miterlimit="10"/>
<path d="M29.9165 22.8951L30.2056 22.9766" stroke="white" stroke-width="0.25" stroke-miterlimit="10"/>
<path d="M30.5012 23.0199L30.5764 23.1205" stroke="white" stroke-width="0.25" stroke-miterlimit="10"/>
<path d="M30.501 23.723L30.1113 23.6415" stroke="white" stroke-width="0.25" stroke-miterlimit="10"/>
<path d="M31.4245 21.8202L32.1084 21.7769" stroke="white" stroke-width="0.25" stroke-miterlimit="10"/>
<path d="M31.4117 22.8569L31.9326 22.8378" stroke="white" stroke-width="0.25" stroke-miterlimit="10"/>
<path d="M30.1113 21.5439L30.2679 21.3872" stroke="white" stroke-width="0.25" stroke-miterlimit="10"/>
<path d="M31.506 23.5854C31.4996 23.5917 31.4117 23.6605 31.3047 23.6299C31.2169 23.5981 31.1545 23.5102 31.1608 23.4096C30.9851 23.4096 30.8093 23.4096 30.6272 23.4096" stroke="white" stroke-width="0.25" stroke-miterlimit="10"/>
<path d="M31.4293 24.0502H31.9324" stroke="white" stroke-width="0.25" stroke-miterlimit="10"/>
<path d="M31.7137 24.6844L31.3992 24.3393" stroke="white" stroke-width="0.25" stroke-miterlimit="10"/>
<path d="M31.1979 24.929C31.217 25.0678 31.166 25.1366 31.1482 25.1544C31.0412 25.2741 30.7712 25.2742 30.5012 25.0793" stroke="white" stroke-width="0.25" stroke-miterlimit="10"/>
<path d="M31.1977 26.0918L30.3686 25.8027" stroke="white" stroke-width="0.25" stroke-miterlimit="10"/>
<path d="M29.1447 27.4786C29.1944 27.4977 29.2835 27.5156 29.3841 27.5156C29.4657 27.5156 29.5344 27.4965 29.5854 27.4786" stroke="white" stroke-width="0.25" stroke-miterlimit="10"/>
<path d="M29.8848 27.4786C29.9409 27.5856 30.0606 27.6417 30.1612 27.6175C30.2618 27.592 30.3051 27.4914 30.3115 27.4786" stroke="white" stroke-width="0.25" stroke-miterlimit="10"/>
<path d="M29.8224 27.9703C29.7969 28.0021 29.7536 28.0263 29.7027 28.0454C29.5893 28.0773 29.4518 28.0136 29.3639 27.8951" stroke="white" stroke-width="0.25" stroke-miterlimit="10"/>
<path d="M29.295 28.5166C29.2581 28.5726 29.2135 28.6045 29.1753 28.6236C28.9932 28.7242 28.7105 28.6236 28.4659 28.3842" stroke="white" stroke-width="0.25" stroke-miterlimit="10"/>
<path d="M29.6782 28.5167C29.7228 28.5536 29.854 28.6606 30.0488 28.686C30.2246 28.7051 30.3558 28.6542 30.4131 28.63" stroke="white" stroke-width="0.25" stroke-miterlimit="10"/>
<path d="M29.5842 29.2133C29.5345 29.226 29.4454 29.2324 29.3448 29.2197C29.2569 29.2069 29.1869 29.1751 29.1436 29.1509" stroke="white" stroke-width="0.25" stroke-miterlimit="10"/>
<path d="M29.2313 29.5775C29.2313 29.5838 29.2568 29.659 29.2059 29.7214C29.1804 29.7532 29.1562 29.7659 29.1371 29.771" stroke="white" stroke-width="0.25" stroke-miterlimit="10"/>
<path d="M29.5905 29.6718C29.6402 29.6973 29.7599 29.7597 29.9242 29.747C30.0375 29.7406 30.119 29.6973 30.1687 29.6718" stroke="white" stroke-width="0.25" stroke-miterlimit="10"/>
<path d="M29.0555 30.1684C29.0683 30.1875 29.1498 30.2881 29.2873 30.3123C29.4007 30.3314 29.4886 30.2932 29.5128 30.2754" stroke="white" stroke-width="0.25" stroke-miterlimit="10"/>
<path d="M29.6782 30.6893C29.7534 30.7212 29.9546 30.7899 30.18 30.7212C30.2551 30.6957 30.3188 30.6651 30.3685 30.6333" stroke="white" stroke-width="0.25" stroke-miterlimit="10"/>
<path d="M30.5074 31.1796C30.4628 31.2051 30.3635 31.2611 30.2246 31.2611C30.0807 31.2675 29.9801 31.2166 29.9355 31.1924" stroke="white" stroke-width="0.25" stroke-miterlimit="10"/>
<path d="M29.5906 31.2484L29.3639 31.3236" stroke="white" stroke-width="0.25" stroke-miterlimit="10"/>
<path d="M29.5905 31.7069C29.6529 31.7069 29.7344 31.7005 29.8223 31.675C29.8974 31.6559 29.9662 31.6305 30.0172 31.6063" stroke="white" stroke-width="0.25" stroke-miterlimit="10"/>
<path d="M29.8096 32.1526C29.8159 32.1653 29.8465 32.2214 29.9229 32.2468C29.9853 32.2659 30.0363 32.2532 30.0541 32.2468" stroke="white" stroke-width="0.25" stroke-miterlimit="10"/>
<path d="M29.0633 32.1017C29.0697 32.1272 29.1193 32.3029 29.2951 32.378C29.3957 32.4226 29.4836 32.4099 29.5205 32.4035" stroke="white" stroke-width="0.25" stroke-miterlimit="10"/>
<path d="M29.6782 32.5793C29.6782 32.592 29.6973 32.7105 29.7979 32.7741C29.8476 32.806 29.8985 32.806 29.924 32.806" stroke="white" stroke-width="0.25" stroke-miterlimit="10"/>
<path d="M29.0633 33.0887C29.0888 33.1256 29.1321 33.1957 29.2212 33.2517C29.2773 33.2886 29.3282 33.3014 29.3651 33.3141" stroke="white" stroke-width="0.25" stroke-miterlimit="10"/>
<path d="M28.8798 33.6159C28.8861 33.6414 28.9294 33.7738 29.0682 33.8286C29.137 33.8604 29.1994 33.8541 29.2313 33.8541" stroke="white" stroke-width="0.25" stroke-miterlimit="10"/>
<path d="M29.0634 34.4323C29.0265 34.4196 28.9374 34.3827 28.8622 34.2884C28.7744 34.1878 28.7616 34.0757 28.7552 34.0375" stroke="white" stroke-width="0.25" stroke-miterlimit="10"/>
<path d="M30.3368 32.9498C30.2999 33.0059 30.2362 33.0886 30.142 33.1319C29.9471 33.2326 29.7714 33.1447 29.7395 33.2007C29.6835 33.3077 30.305 33.7025 30.2541 33.7967C30.2286 33.8413 30.0146 33.8222 29.8465 33.7216C29.7523 33.6656 29.7026 33.6019 29.6708 33.6146C29.6262 33.6401 29.6453 33.7904 29.6835 33.9037C29.7281 34.0298 29.7778 34.0616 29.765 34.1113C29.7523 34.1559 29.6771 34.2056 29.4008 34.1992C29.4135 34.5889 29.3384 34.7086 29.2696 34.7328C29.1881 34.7647 29.1117 34.6831 29.0493 34.7264C28.9678 34.7825 29.0684 34.9582 28.9932 35.1416C28.9372 35.2804 28.7984 35.3989 28.6723 35.3989C28.4966 35.3989 28.3017 35.1416 28.2826 34.7583" stroke="white" stroke-width="0.25" stroke-miterlimit="10"/>
<path d="M28.2902 34.7774C28.3526 34.8092 28.4914 34.878 28.6799 34.8716C28.8429 34.8653 28.9627 34.8092 29.0251 34.7774" stroke="white" stroke-width="0.25" stroke-miterlimit="10"/>
<path d="M6.62772 10.9109C6.778 10.8854 6.91682 10.7848 6.99196 10.6537C7.09257 10.4779 6.82257 10.32 6.72196 10.4957C6.70286 10.5212 6.67739 10.5518 6.65956 10.5645C6.65319 10.5709 6.60989 10.59 6.62772 10.5836C6.60225 10.5963 6.57805 10.5963 6.55258 10.6027C6.47107 10.6154 6.4214 10.7224 6.4456 10.7976C6.45706 10.8918 6.54494 10.9236 6.62772 10.9109Z" fill="white" stroke="white" stroke-width="0.25" stroke-miterlimit="10"/>
<path d="M8.25431 11.47C8.34855 11.3312 8.39822 11.1681 8.40459 10.9988C8.41095 10.7975 8.09766 10.7975 8.09002 10.9988C8.08365 11.1121 8.04544 11.2191 7.97667 11.3133C7.927 11.3821 7.96393 11.4891 8.03271 11.526C8.11549 11.5706 8.20464 11.5387 8.25431 11.47Z" fill="white" stroke="white" stroke-width="0.25" stroke-miterlimit="10"/>
<path d="M6.35006 16.6011C6.3819 16.5947 6.41247 16.5884 6.45067 16.5947C6.63279 16.6011 6.65826 16.3375 6.49525 16.2878C6.47614 16.2814 6.42648 16.2687 6.42011 16.2509C6.34497 16.3069 6.26983 16.3706 6.18832 16.4266C6.20742 16.4394 6.21379 16.4394 6.23289 16.4585C6.28256 16.3706 6.33351 16.2827 6.38318 16.1948C6.41501 16.2139 6.42011 16.2139 6.40228 16.2012C6.39591 16.1885 6.38318 16.1821 6.37681 16.1694C6.3577 16.1503 6.33987 16.1324 6.32714 16.1133C6.2953 16.0764 6.26473 16.0382 6.23289 16C6.18323 15.9312 6.09408 15.8994 6.02021 15.944C5.95144 15.9809 5.91323 16.0879 5.96417 16.1566C6.01384 16.2254 6.06478 16.2878 6.1221 16.3515C6.17176 16.4075 6.22271 16.4712 6.30421 16.4954C6.45449 16.54 6.57421 16.3375 6.45449 16.2318C6.42266 16.1999 6.38572 16.1757 6.34752 16.1503C6.2278 16.0751 6.08389 16.1999 6.11573 16.326C6.15266 16.4699 6.27365 16.5387 6.41119 16.5833C6.42393 16.4827 6.43666 16.3757 6.45577 16.2764C6.39336 16.2764 6.32969 16.2827 6.27365 16.2955C6.06861 16.3438 6.15011 16.6457 6.35006 16.6011Z" fill="white" stroke="white" stroke-width="0.25" stroke-miterlimit="10"/>
<path d="M4.45374 16.13C4.59765 16.1554 4.76067 16.1669 4.89948 16.2178C4.94406 16.2306 4.98099 16.2624 5.02557 16.2802C5.0816 16.2993 5.13891 16.2866 5.19495 16.293C5.38981 16.3299 5.47768 16.0293 5.27646 15.9911C5.23188 15.9848 5.18222 15.9975 5.13764 15.9848C5.09307 15.9784 5.03066 15.9287 4.97972 15.9096C4.83581 15.8651 4.67788 15.8409 4.53397 15.8218C4.3353 15.7976 4.25379 16.0981 4.45374 16.13Z" fill="white" stroke="white" stroke-width="0.25" stroke-miterlimit="10"/>
<path d="M17.9014 19.8424C17.9078 19.9112 17.9383 19.9622 17.9511 20.0309C17.9702 20.0933 17.9766 20.157 18.0071 20.213C18.0517 20.2882 18.1459 20.3137 18.2198 20.2691C18.2949 20.2245 18.3204 20.1252 18.2758 20.0564C18.2631 20.0373 18.2567 19.9813 18.2504 19.9494C18.244 19.9303 18.2376 19.9125 18.2313 19.8934C18.2249 19.8743 18.2185 19.8564 18.2058 19.8373C18.1931 19.8119 18.1931 19.8119 18.2058 19.8437C18.1994 19.7622 18.137 19.6858 18.0479 19.6858C17.9766 19.6858 17.895 19.7546 17.9014 19.8424Z" fill="white" stroke="white" stroke-width="0.25" stroke-miterlimit="10"/>
<path d="M18.309 19.4959C18.365 19.5405 18.416 19.5583 18.4847 19.5774C18.4478 19.5405 18.4096 19.5023 18.3778 19.4705C18.3778 19.4768 18.3778 19.4832 18.3841 19.4832C18.3905 19.4463 18.3969 19.4017 18.4032 19.3635C18.3969 19.3699 18.3969 19.3762 18.3905 19.3762C18.4223 19.3508 18.4529 19.3266 18.4847 19.3075C18.416 19.3329 18.3714 19.352 18.3345 19.4144C18.2899 19.4832 18.3217 19.5902 18.3905 19.6271C18.4223 19.6462 18.4465 19.659 18.472 19.6768C18.4465 19.6449 18.4223 19.6144 18.4032 19.5825C18.4032 19.5889 18.4032 19.5953 18.4096 19.6016C18.4223 19.552 18.4351 19.501 18.4465 19.4514C18.4211 19.4832 18.3841 19.5074 18.3523 19.5329C18.2517 19.6144 18.3268 19.7583 18.4211 19.7965C18.3892 19.7468 18.3765 19.7468 18.3892 19.8029C18.3892 19.8347 18.3956 19.8653 18.3956 19.8907C18.402 19.9468 18.4083 19.9977 18.4211 20.0538C18.4656 20.2486 18.7726 20.1671 18.7229 19.9723C18.6974 19.8716 18.7165 19.7647 18.691 19.6704C18.6656 19.5762 18.5904 19.5265 18.5026 19.4947C18.528 19.5825 18.5471 19.6704 18.5713 19.7583C18.6401 19.7023 18.7216 19.6513 18.7102 19.5456C18.6974 19.4514 18.6223 19.4068 18.5471 19.3635C18.5662 19.4323 18.5841 19.5074 18.6032 19.5762C18.5841 19.608 18.5535 19.6322 18.6032 19.6016C18.6286 19.5889 18.6477 19.5647 18.6656 19.5392C18.6911 19.4947 18.6974 19.445 18.6847 19.3953C18.6719 19.3457 18.6286 19.3011 18.5777 19.2883C18.565 19.282 18.5522 19.282 18.5408 19.2883C18.3727 19.1508 18.146 19.3711 18.309 19.4959Z" fill="white" stroke="white" stroke-width="0.25" stroke-miterlimit="10"/>
<path d="M18.0195 19.9481C18.2208 19.9481 18.2208 19.6335 18.0195 19.6335C17.8196 19.6348 17.8196 19.9481 18.0195 19.9481Z" fill="white" stroke="white" stroke-width="0.25" stroke-miterlimit="10"/>
<path d="M17.9382 19.9557C18.1394 19.9557 18.1394 19.6411 17.9382 19.6411C17.7382 19.6411 17.7382 19.9557 17.9382 19.9557Z" fill="white" stroke="white" stroke-width="0.25" stroke-miterlimit="10"/>
<path d="M7.48726 11.3949C7.57513 11.4012 7.65664 11.4203 7.73178 11.4573C7.75725 11.3567 7.78145 11.2624 7.81329 11.1618C7.86296 11.1682 7.81329 11.1491 7.79419 11.1427C7.77508 11.13 7.74961 11.1172 7.73178 11.1058C7.75089 11.1249 7.76872 11.1427 7.78782 11.1618C7.78145 11.1554 7.78145 11.1491 7.77508 11.1427C7.78145 11.1796 7.78782 11.2242 7.79419 11.2624C7.79419 11.256 7.79419 11.2497 7.80055 11.2433C7.78782 11.2688 7.77508 11.2879 7.76362 11.3121C7.76999 11.3057 7.77636 11.3057 7.77636 11.2993C7.75089 11.3121 7.73178 11.3248 7.70758 11.3363C7.70122 11.3363 7.70122 11.3363 7.71395 11.3363C7.78909 11.3299 7.84003 11.2917 7.86423 11.2229C7.87697 11.1975 7.87697 11.1542 7.8706 11.1287C7.86423 11.1096 7.86423 11.1096 7.86423 11.1287C7.86423 11.1478 7.86423 11.1478 7.8706 11.1223C7.89607 11.0854 7.89607 11.0281 7.89607 10.9835C7.89607 10.7823 7.5815 10.7823 7.5815 10.9835C7.5815 11.0153 7.5624 11.0332 7.55603 11.065C7.5433 11.1147 7.5433 11.1656 7.5624 11.2089C7.5624 11.1834 7.5624 11.1529 7.5624 11.1274C7.5624 11.1338 7.5624 11.1338 7.55603 11.1401C7.6057 11.1032 7.65664 11.065 7.70631 11.0268C7.63754 11.0332 7.58023 11.0395 7.53056 11.0892C7.47452 11.1452 7.46816 11.2395 7.50509 11.3095C7.56113 11.4038 7.70631 11.4725 7.80692 11.4789C7.96484 11.4916 8.01961 11.2535 7.88843 11.1834C7.76235 11.121 7.63117 11.0828 7.48598 11.0765C7.40448 11.0701 7.32806 11.1516 7.32806 11.2344C7.33061 11.3248 7.39938 11.3885 7.48726 11.3949Z" fill="white" stroke="white" stroke-width="0.25" stroke-miterlimit="10"/>
</svg>
