<svg xmlns="http://www.w3.org/2000/svg">
<path d="M525.167 256.764C514.465 232.436 497.477 218.383 489.295 212.565C478.03 205.038 463.201 196.636 445.256 190.023C412.468 177.704 383.207 176.037 363.846 176.684C339.724 177.232 315.388 177.944 291.266 178.491C291.266 178.491 291.915 147.531 293.342 137.785C296.229 118.713 298.374 104.852 308.651 91.1609C316.804 80.2911 326.456 74.2989 332.761 71.1021C323.473 67.7888 311.738 62.57 299.665 53.3829C277.337 36.6904 265.911 16.7289 260.337 5.19184C254.531 4.64865 244.958 4.86923 234.708 9.24754C211.831 18.755 203.692 41.0031 202.126 45.3529C203.974 95.8762 206.033 146.446 207.877 197.18C133.554 213.699 104.674 222.027 98.3557 225.856C97.4998 226.47 94.5538 228.263 91.019 227.978C85.0028 227.43 83.709 220.787 77.3466 216.65C68.3213 210.856 56.1882 214.563 53.0491 215.508C47.4066 217.244 41.7286 220.665 35.125 228.027C12.5619 252.712 12.673 287.607 12.7653 293.256C12.9515 304.469 15.0438 313.236 18.0931 326.616C20.366 336.82 23.8622 348.988 29.1964 361.952C34.7316 375.385 40.7367 386.51 46.5744 395.566C54.3812 409.215 63.429 423.985 73.9435 439.166C85.2364 455.416 96.6069 469.982 107.553 482.686C109.45 480.661 112.255 477.559 115.038 473.487C118.91 467.753 119.831 464.022 121.324 461.146C125.838 452.939 137.14 450.689 146.524 449.411C166.94 446.721 189.673 444.08 214.85 441.489C214.861 589.656 214.868 738.034 214.878 886.243C215.256 888.316 216.347 894.575 222.061 899.499C224.916 902.045 228.011 903.164 229.898 903.625C231.395 902.603 233.279 901.209 235.388 899.147C244.516 889.983 246.858 878.823 248.771 865.968C251.387 849.798 253.179 834.665 254.487 820.576C261.892 694.604 269.547 568.806 276.954 442.792C311.083 441.443 332.636 444.803 346.049 448.413C350.619 449.563 362.39 453.097 378.211 452.417C388.378 451.998 396.764 450.109 402.191 448.58C402.902 444.844 403.419 440.304 402.901 434.857C400.78 417.366 387.47 406.889 383.814 404.326C388.999 394.279 397.642 380.09 411.425 366.051C431.196 345.901 451.545 336.341 468.741 328.4C483.851 321.427 505.863 312.954 534.449 308.582C534.912 298.562 534.905 278.798 525.167 256.764ZM177.376 405.347C156.07 410.294 138.053 417.207 123.576 424.151C122.776 403.991 120.912 382.334 118.059 359.602C113.437 322.717 106.429 289.11 98.5363 259.446C108.329 258.809 116.238 257.542 121.91 256.396C135.706 253.778 147.211 249.89 165 243.815C169.374 242.264 172.982 241.075 175.233 240.279C179.864 238.522 188.217 236.211 198.598 237.651C202.76 238.16 206.235 239.286 209.159 240.57C209.097 293.75 208.992 346.971 208.925 400.404C199.302 401.003 188.687 402.677 177.376 405.347ZM374.393 320.943C360.679 349.774 354.733 376.029 351.85 394.89L279.516 395.016C282.132 340.625 284.706 286.234 287.112 231.838C289.434 229.611 292.828 226.564 297.89 224.395C304.402 221.413 310.22 221.324 313.132 221.175C362.214 220.35 388.611 219.85 408.982 239.409C411.837 241.956 416.123 246.597 420.108 253.549C406.653 268.016 388.946 290.274 374.393 320.943Z"/>
</svg>


