<?xml version="1.0" encoding="utf-8"?>
<!-- Generator: Adobe Illustrator 25.1.0, SVG Export Plug-In . SVG Version: 6.00 Build 0)  -->
<svg version="1.1" id="Layer_1" xmlns="http://www.w3.org/2000/svg" xmlns:xlink="http://www.w3.org/1999/xlink" x="0px" y="0px"
	 viewBox="0 0 500 400" style="enable-background:new 0 0 500 400;" xml:space="preserve">
<style type="text/css">
	.st0{fill:#020203;stroke:#000000;stroke-miterlimit:10;}
</style>
<path id="Teken" class="st0" d="M314.5,146.5c-2.7-5.7-6.8-9-8.7-10.3c-2.7-1.7-6.3-3.6-10.6-5.1c-7.8-2.8-14.8-3-19.4-2.8
	c-5.7,0.2-11.5,0.5-17.2,0.8c0,0,0-7.4,0.3-9.7c0.6-4.5,1-7.8,3.4-11.1c1.9-2.6,4.1-4.1,5.6-4.9c-2.2-0.7-5-1.9-7.9-4
	c-5.4-3.9-8.2-8.5-9.6-11.2c-1.4-0.1-3.6,0-6.1,1.1c-5.4,2.4-7.2,7.7-7.6,8.7c0.7,12,1.4,24,2.1,36c-17.6,4.3-24.4,6.4-25.8,7.4
	c-0.2,0.1-0.9,0.6-1.7,0.5c-1.4-0.1-1.8-1.7-3.3-2.6c-2.2-1.3-5-0.4-5.8-0.1c-1.3,0.4-2.7,1.3-4.2,3.1c-5.2,6-5,14.2-5,15.6
	c0.1,2.7,0.6,4.7,1.4,7.9c0.6,2.4,1.5,5.3,2.8,8.3c1.4,3.2,2.9,5.8,4.3,7.9c1.9,3.2,4.1,6.7,6.7,10.2c2.8,3.8,5.5,7.2,8.2,10.2
	c0.4-0.5,1.1-1.2,1.7-2.2c0.9-1.4,1.1-2.3,1.4-3c1-2,3.7-2.6,5.9-2.9c4.8-0.7,10.2-1.5,16.2-2.2c0.7,35.2,1.5,70.4,2.2,105.5
	c0.1,0.5,0.4,2,1.8,3.1c0.7,0.6,1.4,0.8,1.9,0.9c0.4-0.2,0.8-0.6,1.3-1.1c2.1-2.2,2.6-4.9,3-7.9c0.5-3.9,0.9-7.5,1.1-10.8
	c1.1-29.9,2.3-59.8,3.4-89.8c8.1-0.5,13.2,0.2,16.4,1c1.1,0.2,3.9,1,7.6,0.8c2.4-0.1,4.4-0.6,5.7-1c0.1-0.9,0.2-2,0.1-3.3
	c-0.6-4.1-3.8-6.6-4.7-7.1c1.2-2.4,3.2-5.8,6.4-9.2c4.6-4.9,9.4-7.2,13.4-9.2c3.5-1.7,8.7-3.9,15.5-5
	C317,156.4,316.9,151.7,314.5,146.5z M232.7,183.5c-5,1.3-9.3,3-12.7,4.7c-0.3-4.8-0.8-9.9-1.6-15.3c-1.3-8.7-3.1-16.7-5.1-23.7
	c2.3-0.2,4.2-0.5,5.5-0.8c3.3-0.7,6-1.7,10.2-3.2c1-0.4,1.9-0.7,2.4-0.9c1.1-0.4,3.1-1,5.5-0.7c1,0.1,1.8,0.4,2.5,0.6
	c0.2,12.6,0.5,25.2,0.7,37.9C237.9,182.3,235.4,182.8,232.7,183.5z M279,162.5c-3.1,6.9-4.4,13.2-5,17.7l-17.2,0.4
	c0.4-12.9,0.7-25.8,1-38.8c0.5-0.5,1.3-1.3,2.5-1.8c1.5-0.7,2.9-0.8,3.6-0.8c11.6-0.4,17.9-0.7,22.8,3.9c0.7,0.6,1.7,1.7,2.7,3.3
	C286.4,149.8,282.3,155.1,279,162.5z"/>
</svg>
