<?xml version="1.0" encoding="utf-8"?>
<!-- Generator: Adobe Illustrator 25.1.0, SVG Export Plug-In . SVG Version: 6.00 Build 0)  -->
<svg version="1.1" id="Layer_1" xmlns="http://www.w3.org/2000/svg" xmlns:xlink="http://www.w3.org/1999/xlink" x="0px" y="0px"
	 viewBox="0 0 500 400" style="enable-background:new 0 0 500 400;" xml:space="preserve">
<style type="text/css">
	.st0{fill:#020203;stroke:#000000;stroke-miterlimit:10;}
	.st1{fill:none;stroke:#000000;stroke-miterlimit:10;}
</style>
<g id="Zwart_Wit">
	<path id="Teken" class="st0" d="M292.2,220.15c-2.66-5.72-6.76-8.97-8.73-10.31c-2.71-1.73-6.27-3.65-10.56-5.13
		c-7.84-2.76-14.79-3.01-19.38-2.76c-5.72,0.25-11.49,0.54-17.21,0.79c0,0,0-7.35,0.29-9.67c0.59-4.54,1.03-7.84,3.4-11.14
		c1.88-2.62,4.14-4.09,5.62-4.88c-2.22-0.74-5.03-1.92-7.94-4.04c-5.38-3.85-8.19-8.53-9.57-11.24c-1.38-0.1-3.65,0-6.06,1.09
		c-5.38,2.37-7.2,7.69-7.55,8.73c0.69,11.98,1.43,23.97,2.12,36c-17.55,4.29-24.36,6.41-25.84,7.35c-0.2,0.15-0.89,0.59-1.73,0.54
		c-1.43-0.1-1.77-1.67-3.3-2.62c-2.17-1.33-5.03-0.39-5.77-0.15c-1.33,0.44-2.66,1.28-4.19,3.06c-5.23,5.97-5.03,14.25-4.98,15.59
		c0.1,2.66,0.64,4.73,1.43,7.89c0.59,2.41,1.48,5.28,2.81,8.33c1.38,3.16,2.86,5.77,4.29,7.89c1.92,3.2,4.14,6.66,6.71,10.21
		c2.76,3.8,5.53,7.2,8.19,10.16c0.44-0.49,1.09-1.24,1.73-2.22c0.89-1.38,1.09-2.27,1.43-2.96c1.03-1.97,3.7-2.56,5.92-2.91
		c4.83-0.74,10.21-1.48,16.17-2.22c0.74,35.16,1.48,70.37,2.22,105.54c0.1,0.49,0.39,1.97,1.77,3.11c0.69,0.59,1.43,0.84,1.88,0.94
		c0.35-0.25,0.79-0.59,1.28-1.09c2.12-2.22,2.62-4.88,3.01-7.94c0.54-3.85,0.89-7.45,1.13-10.8c1.13-29.93,2.32-59.82,3.45-89.76
		c8.09-0.49,13.22,0.2,16.42,0.99c1.09,0.25,3.9,1.03,7.65,0.79c2.41-0.15,4.39-0.64,5.67-1.03c0.15-0.89,0.25-1.97,0.1-3.26
		c-0.59-4.14-3.8-6.56-4.68-7.15c1.18-2.41,3.16-5.82,6.36-9.22c4.59-4.88,9.37-7.25,13.41-9.22c3.55-1.73,8.73-3.85,15.49-5.03
		C294.72,230.02,294.62,225.33,292.2,220.15z M210.43,257.14c-5.03,1.28-9.27,3.01-12.67,4.73c-0.29-4.78-0.84-9.91-1.63-15.29
		c-1.28-8.73-3.11-16.67-5.13-23.67c2.32-0.2,4.19-0.54,5.53-0.84c3.26-0.69,5.97-1.67,10.16-3.2c1.03-0.39,1.88-0.69,2.41-0.89
		c1.09-0.44,3.06-1.03,5.53-0.74c0.99,0.1,1.82,0.35,2.52,0.64c0.25,12.62,0.49,25.25,0.74,37.93
		C215.61,256,213.1,256.45,210.43,257.14z M256.75,236.13c-3.11,6.91-4.39,13.17-4.98,17.66l-17.16,0.39
		c0.35-12.92,0.69-25.84,0.99-38.76c0.54-0.54,1.33-1.28,2.52-1.82c1.53-0.74,2.91-0.79,3.6-0.84c11.64-0.44,17.9-0.69,22.83,3.85
		c0.69,0.59,1.73,1.67,2.71,3.3C264.14,223.41,260.05,228.78,256.75,236.13z"/>
	<g>
		<path id="Schild_3_" class="st1" d="M332.69,273.51"/>
		<path id="Schild_6_" class="st1" d="M151.4,145.49h-32.79l1.13,149.23c6.06,53.16,50.7,94,103.66,95.43
			c53.95,1.43,101.25-38.47,108.99-92.42c0.05-2.12,0.05-4.24,0.1-6.36"/>
		<path id="Schild_9_" class="st1" d="M151.4,145.49"/>
		<line id="Schild_8_" class="st1" x1="212.26" y1="145.49" x2="160.62" y2="145.49"/>
		<line id="Schild_7_" class="st1" x1="240.91" y1="145.49" x2="228.09" y2="145.49"/>
		<line id="Schild_4_" class="st1" x1="319.52" y1="145.49" x2="261.68" y2="145.49"/>
		<path id="Schild_2_" class="st1" d="M333.72,194.56c0.15-10.56,0.29-21.06,0.39-31.61"/>
		<path id="Schild_5_" class="st1" d="M333.72,194.56"/>
		<path id="Schild" class="st1" d="M332.69,273.51c0.29-21.41,0.54-42.81,0.84-64.21"/>
	</g>
	<g>
		<path class="st1" d="M273.41,94.74c-0.64,1.18-1.38,2.41-2.27,3.65c-4.68,6.36-10.8,9.57-14.94,11.2
			c-0.79-2.32-1.53-4.64-2.32-6.95c-0.44,2.02-1.48,5.32-4.04,8.63c-4.24,5.42-9.86,7.15-11.88,7.69c-0.54-1.92-1.09-3.85-1.63-5.82
			c-0.39,0.79-0.99,1.88-1.92,3.01c-3.35,4-8.04,5.03-10.31,5.53c-1.92,0.44-5.13,0.89-9.18,0.15c0.35-1.33,0.69-2.62,1.09-3.94
			c-2.76-0.15-5.53-0.29-8.33-0.39c-0.15-0.15-1.09-0.99-1.09-2.32c0-1.24,0.79-2.41,1.97-2.96c1.82,1.13,5.28,2.96,9.86,3.16
			c1.97,0.1,3.65-0.15,5.03-0.44c1.24,1.13,2.41,2.32,3.65,3.45c-0.2-1.33-0.29-3.45,0.25-5.92c0.74-3.2,2.27-5.47,3.2-6.61
			l5.82,2.56l-8.04-18l3.26-4.54c-2.47,0-4.98,0-7.45,0c-3.16-2.56-5.97-4.34-8.04-5.47c-3.45-1.97-5.28-2.96-7.89-3.35
			c-3.7-0.49-6.81,0.59-8.53,1.38c0.64-1.38,1.24-2.81,1.88-4.19c0.69-1.58,1.43-3.16,2.12-4.73c-0.59,0.74-1.48,1.73-2.81,2.62
			c-2.37,1.53-4.78,1.73-5.92,1.77c0.64-0.35,2.32-1.33,3.4-3.4c1.28-2.47,0.89-4.78,0.79-5.42c-1.38,0.99-2.76,2.02-4.19,3.01
			c-1.28-0.2-2.56-0.35-3.8-0.54c0.54-0.39,2.32-1.73,3.01-4.19c0.89-3.01-0.39-5.47-0.64-5.97c-0.35,1.13-1.09,3.06-2.76,4.83
			c-0.94,0.99-1.88,1.63-2.66,2.07h-8.19c-1.13,0.79-2.32,1.58-3.45,2.37c0.15-1.18,0.29-3.6-0.84-6.36
			c-1.28-3.16-3.5-4.93-4.44-5.62c0.74,1.82,2.22,6.27,1.09,11.74c-0.74,3.45-2.22,6.02-3.26,7.5c-1.13,0.2-3.2,0.69-5.08,2.41
			c2.07-1.53,4.24-1.53,4.93-1.53c0.64,0.25,1.92,0.84,2.86,2.17c1.33,1.88,1.18,3.9,1.09,5.03s-0.35,4.39-3.11,6.27
			c-0.39,0.25-2.66,1.82-5.13,1.03c-2.17-0.74-3.3-2.91-3.7-4.93c0.05,1.28,0.25,2.22,0.25,2.32c-0.59,0.29-2.32,1.03-4.59,0.59
			c-2.02-0.39-3.35-1.53-3.8-1.97l2.62,4.88l-5.97-3.5l0.59,4.88l-6.56-3.5c1.73,2.32,3.45,4.68,5.18,7c-0.29,1.33-0.74,4.09,0.44,7
			c0.35,0.84,0.74,1.53,1.18,2.12c0.15-1.77,0.29-3.5,0.44-5.28c0.74-0.05,1.48-0.15,2.22-0.2c0.39,1.43,0.79,2.91,1.13,4.34
			c0.25-1.33,0.44-2.71,0.69-4.04h2.12c0.44,1.28,0.84,2.56,1.28,3.85c0.25-1.09,0.49-2.17,0.74-3.26l5.03,0.15
			c0,0.49,0,1.03,0,1.53c-1.48,1.58-3.6,3.5-6.46,5.18c-5.13,3.01-10.06,3.75-12.87,3.94l18.74,0.29c0.64,1.43,1.33,2.86,1.97,4.29
			c-0.44,0.15-0.94,0.25-1.48,0.29c-2.37,0.1-4.04-1.58-4.49-2.02c0.64,1.38,1.24,2.76,1.88,4.19c-1.67,0.54-3.3,1.13-4.98,1.67
			c2.41,0.05,5.18,0.35,8.23,0.99c1.67,0.35,3.2,0.79,4.59,1.24c3.2-4.24,6.66-6.66,8.68-5.77c0.29,0.15,0.64,0.35,0.94,0.74
			c0-0.49-0.2-5.72,3.55-8.19c0.94-0.64,1.97-0.94,2.81-1.09c0.1-1.97,0.69-8.68,5.97-13.66c1.28-1.18,3.85-3.55,7.94-4.29
			c3.85-0.64,6.95,0.49,8.43,1.13c1.13,0.54,3.16,1.48,4.83,3.7c1.63,2.12,2.12,4.29,2.27,5.38c-3.35-0.29-6.02-0.84-7.84-1.24
			c-2.96-0.64-4.14-1.18-6.06-1.09c-2.81,0.15-5.03,1.48-6.46,2.56c-1.67,1.63-4.59,4.88-5.97,9.82
			c-1.58,5.67-0.39,10.85,1.09,14.45l0,0l-11.34,10.8l-14.75,2.56c0.15-0.39,1.58-3.8-0.35-7.25c-2.12-3.8-6.31-4.14-6.66-4.14
			c0.35,0.25,2.66,1.97,2.81,5.03c0.1,1.77-0.64,3.16-0.99,3.7c-1.38-4.98-5.18-8.53-9.37-8.83c-2.81-0.2-4.98,1.03-6.02,1.73
			c0.44-0.1,4.59-0.89,7.74,2.02c2.07,1.92,2.47,4.29,2.62,5.08c-4.88-4.93-11.05-6.12-14.5-3.7c-0.64,0.44-2.12,1.67-2.86,4.54
			c0.54-0.39,3.4-2.62,7.5-2.07c4.14,0.49,6.46,3.45,6.81,3.94c-1.13,0-2.76,0-4.73,0.2c-4,0.44-6.36,0.69-8.23,2.37
			c-0.69,0.59-2.07,2.07-2.56,5.03c1.24-0.74,3.26-1.77,5.87-2.27c3.01-0.59,5.53-0.25,7,0.05c2.17,1.58,4.93,3.65,8.14,6.12
			c4.88,3.75,6.41,5.03,6.76,7.2c0.39,2.27-0.79,4.34-1.63,5.57c1.53-0.84,3.01-1.67,4.54-2.52c0.35-0.64,1.67-3.4,0.79-6.76
			c-1.13-4.24-4.93-5.97-5.42-6.17c9.76-0.84,20.27-2.32,31.31-4.68c3.16-0.69,6.27-1.43,9.22-2.17c-0.1-0.1-0.2-0.2-0.35-0.29
			c-0.05-0.05,3.8,3.26,8.97,5.53c2.27,0.99,4.09,1.48,4.73,1.63c2.96,0.74,5.53,0.84,7.35,0.79c2.07-0.15,5.32-0.64,8.88-2.47
			c2.32-1.18,4.04-2.56,5.28-3.7c0.1,0.35,0.84,3.11,3.45,4.24c0.84,0.35,1.63,0.44,2.27,0.44c-0.69,1.43-1.13,2.81-1.43,3.9
			c-0.35,0.89-2.07,5.67,0.39,10.16c0.84,1.58,1.97,2.62,2.86,3.3l1.13-10.85c0.05,2.07,0.49,4.68,2.12,7.15
			c1.18,1.82,2.62,2.96,3.7,3.7c0-3.55,0-7.1,0-10.65c0.2,1.73,0.64,3.75,1.63,5.77c0.74,1.53,1.58,2.81,2.37,3.8
			c0.05-3.06,0.1-6.06,0.2-9.12c0.1,1.09,0.29,2.27,0.69,3.55c0.64,2.27,1.58,4.04,2.37,5.32c-0.2-1.97-0.25-4.98,0.64-8.43
			c1.28-4.68,3.75-7.89,5.28-9.61c-0.44-0.29-1.09-0.74-1.92-1.09c-0.99-0.44-1.82-0.59-2.81-0.79c-1.24-0.2-3.01-0.44-5.23-0.59
			c0-0.84,0-1.73,0-2.56h-5.67c0.35-0.2,0.69-0.35,0.94-0.44c1.38-0.25,4.59-0.59,8.23,0.84c1.92,0.74,3.35,1.77,3.8,2.12
			c1.18,0.89,2.02,1.77,2.66,2.52c0.05,0.05,0.1,0.1,0.15,0.2c0-0.05,0.99-2.81,1.03-2.86l0.94-2.66c-3.01-2.12-6.06-4.19-9.07-6.31
			c4.49-1.58,9.67-3.16,15.53-4.39 M293.19,124.77c0.25,0,0.49,0,0.74-0.05c2.41-0.29,6.41-0.39,10.46,1.53
			c1.09,0.54,4.68,2.37,10.5,11.29c5.87,9.03,5.18,10.56,8.29,14.85c2.37,3.3,4.73,5.67,6.31,7.15c0.89,0.84,2.41,2.12,4.44,3.5
			c4.93,3.35,7.25,3.3,9.52,6.06c2.22,2.71,2.52,5.87,2.62,7.05c0.49,5.23-2.12,9.07-3.16,10.65c-3.16,4.68-7.59,6.61-9.42,7.3
			c-0.74,1.24-2.62,4.93-2.07,9.82c0.44,4,2.27,6.76,3.2,7.99c0.84-3.26,1.67-6.51,2.52-9.76c-0.1,1.48-0.05,3.16,0.39,4.88
			c0.49,1.97,1.33,3.5,2.07,4.59c-1.33,1.43-3.4,4.09-4.54,7.94c-0.84,2.81-0.89,5.28-0.74,6.95c1.28,3.8,2.52,8.29,3.4,13.47
			c0.84,4.93,1.18,9.42,1.24,13.26c0.35,2.66,0.54,7.59-1.53,13.12c-1.28,3.45-3.06,6.02-4.49,7.74c-3.55-0.44-6.27,0.25-7.79,0.74
			c-2.07,0.69-5.28,1.77-5.97,4.34c-0.25,0.94-0.1,1.82,0.05,2.41c0.2-0.29,2.41-3.65,5.67-3.5c0.49,0.05,1.13,0.15,1.82,0.49
			c-0.74,0.29-1.48,0.69-2.22,1.13c-4.09,2.56-5.97,6.51-6.81,8.73c1.13-0.89,2.66-1.97,4.73-2.86c1.28-0.54,2.47-0.89,3.45-1.13
			c-0.59,0.44-2.96,2.41-3.5,5.87c-0.44,2.62,0.39,4.64,0.79,5.42c0.05-1.09,0.39-4.09,2.76-6.61c0.99-1.09,2.07-1.77,2.91-2.17
			c-0.54,1.38-1.38,4.04-1.13,7.4c0.25,2.96,1.18,5.23,1.88,6.51c0.44-3.01,1.48-6.66,3.7-10.26c0.35-0.59,0.74-1.13,1.09-1.63
			c0.1,1.63,0.44,3.8,1.24,6.17c0.64,1.92,1.43,3.55,2.17,4.78c-0.54-4.44-0.54-10.01,1.03-16.13c0.29-1.18,0.64-2.27,1.03-3.35
			c0.05,1.53,0.44,4.73,2.56,8.04c1.58,2.41,3.45,3.9,4.64,4.73c-0.99-1.43-2.12-3.4-2.86-5.92c-1.82-6.02-0.39-11.29,0.39-13.51
			c0.94,2.17,2.81,5.53,6.41,8.04c0.79,0.54,1.53,0.94,2.27,1.33c-1.13-1.48-2.71-3.8-3.75-6.95c-1.33-4.04-1.28-7.55-1.09-9.61
			c1.67,1.58,3.35,3.11,5.08,4.68c-1.48-3.75-2.96-7.55-4.44-11.29l0.15-8.19l5.87,2.02c-0.69-0.74-1.38-1.58-2.02-2.47
			c-3.45-4.98-4.09-10.26-4.19-13.56c1.38,1.09,2.76,2.22,4.14,3.3c-1.09-2.27-2.27-5.47-2.91-9.42c-0.79-5.08-0.35-9.32,0.2-12.13
			c1.97,1.58,3.9,3.2,5.87,4.78c-0.79-1.48-1.53-3.3-2.12-5.42c-1.53-5.53-0.94-10.36-0.35-13.26c2.41,0.79,4.83,1.53,7.25,2.32
			c-0.69-0.99-1.77-2.86-2.17-5.42c-0.54-3.5,0.54-6.27,1.09-7.4c1.18,0.74,2.37,1.43,3.55,2.17c-0.74-1.88-1.43-4.29-1.88-7.15
			c-0.54-3.85-0.35-7.15,0-9.52c0.64-1.09,1.24-2.17,1.88-3.26l3.55,2.17c-0.79-0.89-1.77-2.17-2.56-3.85
			c-1.53-3.2-1.58-6.21-1.48-7.84l0,0c4.83-1.63,11.44-4.78,17.12-11.2c3.65-4.14,5.87-9.07,6.12-9.57
			c0.84-1.82,2.32-5.38,3.11-9.96c0.44-2.52,2.96-17.12-5.72-28.5c-1.13-1.48-3.45-4.49-7.65-6.85c-4.64-2.62-9.07-3.06-11.44-3.16
			c-2.32,0.05-6.12,0.39-10.41,2.17c-4.78,2.02-7.69,4.88-9.03,6.21c-7.79,7.74-9.12,18.15-9.47,21.6c-1.97-1.48-3.4-3.16-4.34-4.93
			c-2.07-3.75-1.33-6.41-3.6-9.07c-1.38-1.63-3.26-2.52-4.98-3.01l4.24-4.64c-2.17,0.15-4.34,0.25-6.46,0.39
			c-3.45-1.92-7.55-3.8-12.23-5.28c-1.18-0.39-2.37-0.69-3.5-0.99c1.53-1.92,3.11-3.85,4.64-5.72c-1.43,0.89-3.65,2.02-6.46,2.62
			c-4.39,0.99-8.09,0.29-10.01-0.25 M184.15,85.42c-0.15,1.03-0.39,2.91-1.88,4.54c-0.2,0.2-3.16,3.45-6.31,2.27
			c-1.97-0.74-2.76-2.76-2.96-3.26c-0.15-0.39-1.67-4.68,0.94-8.09c1.53-2.02,4.68-3.94,7.1-2.91c1.67,0.74,2.47,2.62,2.71,3.26
			C184.5,82.96,184.3,84.49,184.15,85.42z M372.59,127.93c-2.22,0.29-4.49,0.59-6.71,0.89l4.93,3.26c0.29,1.28,0.69,3.45,0.25,6.12
			c-0.54,3.11-1.97,5.32-2.76,6.36c-1.48-1.43-2.96-2.86-4.49-4.34v5.72c-0.05,0.35-0.39,1.92-1.88,3.01
			c-1.48,1.09-3.01,0.94-3.35,0.89c-1.28-1.28-3.6-4.04-4.54-8.14c-0.39-1.67-0.44-3.16-0.39-4.39c1.63-0.49,3.26-0.99,4.93-1.48
			c-0.64-0.35-1.33-0.79-1.97-1.48c-2.52-2.76-1.77-6.66-1.63-7.3c1.73,0.29,3.45,0.59,5.18,0.94c-1.43-1.53-1.88-3.7-1.09-5.53
			c0.94-2.17,3.45-3.4,5.97-2.81c0.39,0,3.75,0.05,5.97,2.81C372.89,124.77,372.64,127.39,372.59,127.93z"/>
		<path class="st1" d="M163.93,76.3c-0.2,0.15-3.11,2.37-3.2,6.17c0,0.54,0.05,1.18,0.2,1.82C160.87,82.07,161.32,78.71,163.93,76.3
			z"/>
	</g>
	<g id="Hoorn">
		<g>
			<path class="st1" d="M290.38,131.04h3.3c-0.79-9.07-1.53-21.7-1.18-36.84c0.35-15.59,0.64-30.08,4.93-48.23
				c2.17-9.27,6.02-22.14,13.26-36.84c-11.14,8.09-17.26,16.62-20.46,22.05c-3.3,5.57-5.38,10.9-6.81,14.55
				c-1.67,4.29-3.85,10.5-5.87,19.63c-3.35,14.94-3.94,26.88-4.93,44.83c-0.44,8.73-0.64,15.93-0.69,20.91h0.15"/>
			<line class="st1" x1="286.28" y1="131.04" x2="288.35" y2="131.04"/>
			<line class="st1" x1="281.94" y1="131.04" x2="284.06" y2="131.04"/>
			<line class="st1" x1="277.56" y1="131.04" x2="279.68" y2="131.04"/>
			<line class="st1" x1="273.41" y1="131.04" x2="275.33" y2="131.04"/>
			<g>
				<path class="st1" d="M293.63,131.04c0,0.25-0.15,0.35-0.39,0.2l-3.5-2.62c-0.2-0.15-0.2-0.44,0-0.59l3.01-2.12
					c0.2-0.15,0.2-0.35-0.05-0.44l-4.09-1.48c-0.25-0.1-0.29-0.29-0.05-0.44l3.9-2.47c0.25-0.15,0.2-0.35-0.05-0.44l-3.85-1.53
					c-0.25-0.1-0.25-0.29,0-0.39l3.65-1.77c0.25-0.1,0.25-0.29,0-0.39l-3.65-1.67c-0.25-0.1-0.25-0.29,0-0.35l3.5-1.13
					c0.25-0.1,0.29-0.29,0.05-0.44l-3.6-2.37c-0.25-0.15-0.2-0.35,0.05-0.39l3.35-0.89c0.25-0.05,0.29-0.25,0.1-0.44l-3.55-2.91
					c-0.2-0.15-0.15-0.39,0.1-0.44l3.3-1.09c0.25-0.1,0.29-0.29,0.1-0.44l-3.2-2.62c-0.2-0.15-0.15-0.35,0.1-0.44l3.01-0.79
					c0.25-0.05,0.29-0.29,0.1-0.44l-3.01-2.81c-0.2-0.2-0.15-0.39,0.1-0.49l2.86-0.99c0.25-0.1,0.29-0.29,0.1-0.49l-2.91-2.96
					c-0.2-0.2-0.15-0.44,0.1-0.54l2.76-1.09c0.25-0.1,0.29-0.35,0.1-0.54l-2.66-2.56c-0.2-0.2-0.15-0.44,0.1-0.54l2.62-1.03
					c0.25-0.1,0.29-0.35,0.1-0.54l-2.52-2.47c-0.2-0.2-0.15-0.44,0.1-0.54l2.52-1.18c0.25-0.1,0.35-0.39,0.15-0.59l-1.92-2.81
					c-0.15-0.25-0.1-0.49,0.15-0.59l1.82-0.84c0.25-0.1,0.29-0.39,0.15-0.59l-1.63-2.17c-0.15-0.2-0.1-0.49,0.15-0.64l1.73-1.03
					c0.25-0.15,0.29-0.44,0.15-0.69l-2.02-3.16c-0.15-0.25-0.1-0.54,0.15-0.69l2.41-1.77c0.2-0.15,0.25-0.49,0.1-0.69l-1.73-2.27
					c-0.15-0.2-0.1-0.49,0.15-0.64l2.12-1.24c0.25-0.15,0.35-0.44,0.2-0.69l-1.58-3.26c-0.1-0.25,0-0.54,0.25-0.64l2.02-0.94
					c0.25-0.1,0.35-0.39,0.2-0.64l-1.53-2.47c-0.15-0.25-0.05-0.49,0.2-0.54l1.92-0.54c0.25-0.05,0.39-0.35,0.29-0.59l-1.28-3.65
					c-0.1-0.25,0.05-0.49,0.29-0.59l1.88-0.44c0.25-0.05,0.39-0.29,0.25-0.54l-1.18-2.32c-0.15-0.25,0-0.54,0.25-0.64l1.92-0.84
					c0.25-0.1,0.39-0.39,0.35-0.69L297.88,37c-0.05-0.25,0.1-0.54,0.35-0.69l1.67-0.69c0.25-0.1,0.39,0,0.29,0.29
					c0,0-3.11,10.85-4.59,18.84c-0.74,4.04-2.56,14.65-3.06,35.31C292.3,100.95,293.63,131.04,293.63,131.04z"/>
			</g>
			<g>
				<path class="st0" d="M289,96.91c-0.2-0.2-0.15-0.39,0.1-0.49l2.86-0.99c0.25-0.1,0.29-0.29,0.1-0.49l-2.91-2.96
					c-0.2-0.2-0.15-0.44,0.1-0.54l2.76-1.09c0.25-0.1,0.29-0.35,0.1-0.54l-2.66-2.56c-0.2-0.2-0.15-0.44,0.1-0.54l2.62-1.03
					c0.25-0.1,0.29-0.35,0.1-0.54l-2.52-2.47c-0.2-0.2-0.15-0.44,0.1-0.54l2.52-1.18c0.25-0.1,0.35-0.39,0.15-0.59l-1.92-2.81
					c-0.15-0.25-0.1-0.49,0.15-0.59l1.82-0.84c0.25-0.1,0.29-0.39,0.15-0.59l-1.63-2.17c-0.15-0.2-0.1-0.49,0.15-0.64l1.73-1.03
					c0.25-0.15,0.29-0.44,0.15-0.69l-2.02-3.16c-0.15-0.25-0.1-0.54,0.15-0.69l2.41-1.77c0.2-0.15,0.25-0.49,0.1-0.69l-1.73-2.27
					c-0.15-0.2-0.1-0.49,0.15-0.64l2.12-1.24c0.25-0.15,0.35-0.44,0.2-0.69l-1.58-3.26c-0.1-0.25,0-0.54,0.25-0.64l2.02-0.94
					c0.25-0.1,0.35-0.39,0.2-0.64l-1.53-2.47c-0.15-0.25-0.05-0.49,0.2-0.54l1.92-0.54c0.25-0.05,0.39-0.35,0.29-0.59l-1.28-3.65
					c-0.1-0.25,0.05-0.49,0.29-0.59l1.88-0.44c0.25-0.05,0.39-0.29,0.25-0.54l-1.18-2.32c-0.15-0.25,0-0.54,0.25-0.64l1.92-0.84
					c0.25-0.1,0.39-0.39,0.35-0.69l-0.79-3.45c-0.05-0.25,0.1-0.54,0.35-0.69l1.67-0.69c0.25-0.1,0.39,0.05,0.35,0.29
					c0,0-5.32,21.65-6.81,35.41c-1.09,10.5-1.09,28.16-1.09,28.16c0,0.25-0.15,0.35-0.35,0.15L289,96.91z"/>
				<path class="st1" d="M289,96.91c-0.2-0.2-0.15-0.39,0.1-0.49l2.86-0.99c0.25-0.1,0.29-0.29,0.1-0.49l-2.91-2.96
					c-0.2-0.2-0.15-0.44,0.1-0.54l2.76-1.09c0.25-0.1,0.29-0.35,0.1-0.54l-2.66-2.56c-0.2-0.2-0.15-0.44,0.1-0.54l2.62-1.03
					c0.25-0.1,0.29-0.35,0.1-0.54l-2.52-2.47c-0.2-0.2-0.15-0.44,0.1-0.54l2.52-1.18c0.25-0.1,0.35-0.39,0.15-0.59l-1.92-2.81
					c-0.15-0.25-0.1-0.49,0.15-0.59l1.82-0.84c0.25-0.1,0.29-0.39,0.15-0.59l-1.63-2.17c-0.15-0.2-0.1-0.49,0.15-0.64l1.73-1.03
					c0.25-0.15,0.29-0.44,0.15-0.69l-2.02-3.16c-0.15-0.25-0.1-0.54,0.15-0.69l2.41-1.77c0.2-0.15,0.25-0.49,0.1-0.69l-1.73-2.27
					c-0.15-0.2-0.1-0.49,0.15-0.64l2.12-1.24c0.25-0.15,0.35-0.44,0.2-0.69l-1.58-3.26c-0.1-0.25,0-0.54,0.25-0.64l2.02-0.94
					c0.25-0.1,0.35-0.39,0.2-0.64l-1.53-2.47c-0.15-0.25-0.05-0.49,0.2-0.54l1.92-0.54c0.25-0.05,0.39-0.35,0.29-0.59l-1.28-3.65
					c-0.1-0.25,0.05-0.49,0.29-0.59l1.88-0.44c0.25-0.05,0.39-0.29,0.25-0.54l-1.18-2.32c-0.15-0.25,0-0.54,0.25-0.64l1.92-0.84
					c0.25-0.1,0.39-0.39,0.35-0.69l-0.79-3.45c-0.05-0.25,0.1-0.54,0.35-0.69l1.67-0.69c0.25-0.1,0.39,0.05,0.35,0.29
					c0,0-5.32,21.65-6.81,35.41c-1.09,10.5-1.09,28.16-1.09,28.16c0,0.25-0.15,0.35-0.35,0.15L289,96.91z"/>
			</g>
		</g>
		<g>
			<path class="st1" d="M268.14,144.16c0,0.25,0.25,0.49,0.49,0.49h28.16c0.25,0,0.49-0.2,0.49-0.49l-0.39-15.49
				c0-0.25-0.1-0.29-0.2-0.05l-1.67,4.68c-0.1,0.25-0.25,0.25-0.35,0l-1.33-4c-0.1-0.25-0.25-0.25-0.35,0l-1.58,3.6
				c-0.1,0.25-0.29,0.25-0.39,0l-1.63-4.19c-0.1-0.25-0.25-0.25-0.35,0l-1.48,4.73c-0.1,0.25-0.25,0.25-0.35,0l-1.88-4.44
				c-0.1-0.25-0.29-0.25-0.39,0l-1.73,4.44c-0.1,0.25-0.25,0.25-0.35,0l-1.92-4.83c-0.1-0.25-0.25-0.25-0.35,0l-1.82,4.83
				c-0.1,0.25-0.25,0.25-0.35,0l-2.02-5.18c-0.1-0.25-0.25-0.25-0.29,0l-1.43,5.32c-0.05,0.25-0.2,0.25-0.29,0l-1.73-5.08
				c-0.1-0.25-0.2-0.25-0.29,0l-1.24,5.24c-0.05,0.25-0.2,0.29-0.35,0.05l-2.41-5.03c-0.1-0.25-0.2-0.25-0.2,0.05L268.14,144.16z"/>
		</g>
	</g>
	<g>
		<path class="st1" d="M123.99,95.33c-0.39-0.2-3.6-1.82-3.6-3.94c0.05-2.37,3.9-4.44,7.15-4.34c2.62,0.05,2.96,1.48,9.86,4.59
			c3.11,1.43,5.03,2.07,6.51,1.13c0.79-0.49,1.18-1.28,1.43-1.92"/>
		<line class="st1" x1="187.95" y1="87" x2="199.58" y2="78.52"/>
		<path class="st1" d="M164.82,94.59c-0.69,8.88,1.33,14.3,3.45,17.66c3.06,4.83,3.7,6.56,4.98,10.01c0,0,0.69,1.82,0.54,6.61
			c0,0.29-0.15,0.74-0.44,1.24c-0.15,0.29-0.74,1.24-1.63,1.43c-0.99,0.25-2.12-0.35-2.81-1.43"/>
		<path class="st1" d="M164.87,99.62h6.46c1.09,0.2,1.97,0.94,2.32,1.97c0.49,1.53-0.49,2.71-0.59,2.81
			c-0.44,0.94-1.82,3.6-4.98,5.23c-1.97,0.99-3.75,1.18-4.83,1.18"/>
		<g>
			<path class="st1" d="M162.7,89.71c2.37,0.15,4.34,0.39,5.77,0.64c2.71,0.44,4.04,0.64,5.47,1.33c0.39,0.2,2.32,1.18,4.14,3.26
				c1.03,1.18,1.88,2.71,1.88,2.71c0.15,0.25,0,0.39-0.25,0.35c0,0-1.63-0.25-3.26,0.74c-0.39,0.25-1.88,1.13-2.22,2.81
				c-0.44,2.17,1.48,4,2.17,4.64c1.28,1.18,2.96,1.73,2.96,1.73c0.25,0.1,0.49,0.39,0.49,0.64c0,0,0,1.18,0,2.02"/>
		</g>
		<path class="st1" d="M202.59,81.33c0.25,0.25,1.53,1.58,1.43,3.55c-0.1,1.88-1.43,3.5-3.3,4.19"/>
		<path class="st1" d="M208.17,77.14l-0.49,5.03c1.58,0.74,2.47,2.41,2.27,4.09c-0.25,1.77-1.67,3.26-3.55,3.45"/>
		<path class="st1" d="M217.29,85.23l-2.37,2.47c1.53,1.28,2.62,2.86,2.22,3.9c-0.49,1.24-3.35,1.77-7,0.54l6.17,3.75
			c1.77,1.53,4,1.48,4.98,0.39c0.84-0.89,0.64-2.27,0.59-2.52"/>
		<path class="st1" d="M219.46,91.09c1.03,0.69,2.32,0.49,2.91-0.25c0.59-0.74,0.35-1.73,0.29-1.82"/>
		<g>
			<line class="st1" x1="224" y1="96.17" x2="227.25" y2="95.28"/>
		</g>
		<path class="st1" d="M212.11,94.1c0.89,0.64,2.32,1.88,3.45,4c0.94,1.77,1.28,3.4,1.38,4.44c0.54,1.18,1.77,1.73,2.66,1.38
			c0.79-0.29,1.03-1.24,1.09-1.38"/>
		<path class="st1" d="M222.76,102.09c1.03,1.09,2.62,1.33,3.75,0.69c1.24-0.74,1.38-2.22,1.38-2.37"/>
		<line class="st1" x1="223.06" y1="105.79" x2="225.63" y2="108.35"/>
		<path class="st1" d="M219.46,106.48c-0.35,1.18,0,2.41,0.84,3.16c0.84,0.74,1.88,0.69,2.07,0.64"/>
		<path class="st1" d="M213.25,103.96c-0.15,0.35-0.49,1.43-0.1,2.76c0.35,1.24,1.13,1.92,1.43,2.17"/>
		<path class="st1" d="M210.04,102.24c-1.03-0.1-2.02,0.64-2.17,1.67c-0.15,1.09,0.64,2.07,1.73,2.22"/>
		<path class="st1" d="M202.74,100.91c-1.09-0.05-2.02,0.84-1.97,1.88c0,1.03,0.84,1.88,1.92,1.88"/>
		<path class="st1" d="M205.31,106.43c-0.15,0.15-0.64,0.84-0.54,1.67c0.1,0.99,0.89,1.82,1.97,2.17"/>
		<path class="st1" d="M199.14,105.69c-0.05,0.15-0.35,1.73,0.79,2.91c0.99,1.09,2.37,1.09,2.56,1.09"/>
		<path class="st1" d="M193.91,105.2c-0.69,0.69-0.74,1.82-0.1,2.62c0.64,0.74,1.77,0.89,2.62,0.35"/>
		<path class="st1" d="M194.46,110.87c0.29,1.18,1.28,2.12,2.47,2.32c1.09,0.15,2.17-0.25,2.86-1.09"/>
		<path class="st1" d="M190.32,116.83c0.94,0.79,2.22,0.94,3.2,0.44c0.94-0.49,1.28-1.43,1.38-1.67"/>
		<path class="st1" d="M197.52,116.79c1.13,1.18,2.86,1.38,4.09,0.59c0.94-0.59,1.43-1.73,1.33-2.91"/>
		<line class="st1" x1="210.14" y1="108.55" x2="211.03" y2="109.83"/>
		<path class="st1" d="M200.52,139.03c-1.92-1.58-4.24-3.8-6.51-6.81c-2.32-3.06-3.85-5.97-4.83-8.29c4.14,1.77,7.55,1.73,8.43,0.29
			c0.2-0.29,0.44-0.99-0.05-2.32"/>
		<path class="st1" d="M200.18,123.2c1.73,1.18,3.9,1.13,5.23,0c1.28-1.09,1.28-2.71,1.28-3.01"/>
		<path class="st1" d="M196.43,130.5c1.73,0.59,2.66,0.35,3.2-0.05c0.79-0.54,0.89-1.48,1.53-1.53c0.64-0.05,0.69,0.99,1.63,1.38
			c1.18,0.49,2.66-0.54,3.3-0.99c0.89-0.59,1.43-1.33,1.73-1.77"/>
		<path class="st1" d="M210.14,129.06c0.99,0.44,2.07,0.29,2.81-0.35c0.89-0.84,1.09-2.32,0.29-3.45"/>
		<path class="st1" d="M202.74,136.12c0.94,0.59,2.17,0.35,2.81-0.39c0.49-0.64,0.59-1.58,0.2-2.32"/>
		<path class="st1" d="M208.17,137.89c0.25-0.05,1.53-0.25,2.32-1.38c0.79-1.09,0.79-2.62,0.1-3.85"/>
		<path class="st1" d="M214.23,133.75c1.38,0.79,2.96,0.2,3.45-0.84c0.49-1.09-0.2-2.71-1.77-3.16"/>
		<path class="st1" d="M212.41,142.13c0.99,0,1.88-0.54,2.22-1.38c0.35-0.79,0.05-1.58,0-1.73"/>
		<path class="st1" d="M219.31,139.03c0.2,0,1.18-0.1,1.77-0.89c0.69-0.89,0.59-2.37-0.39-3.45"/>
		<line class="st1" x1="222.42" y1="132.67" x2="223.06" y2="128.42"/>
		<path class="st1" d="M221.63,146.92c0.39-0.49,1.63-2.02,1.58-4.24c0-0.94-0.25-1.67-0.49-2.17"/>
		<path class="st1" d="M225.63,138.44c1.09-0.1,2.02-0.79,2.41-1.77c0.49-1.13,0.15-2.47-0.79-3.3"/>
		<line class="st1" x1="228.93" y1="131.18" x2="228.93" y2="126.75"/>
		<path class="st1" d="M231.25,132.67c0.39,0.64,0.79,1.48,1.18,2.41c0.39,1.03,0.64,2.02,0.74,2.81"/>
		<line class="st1" x1="229.87" y1="139.67" x2="230.46" y2="144.5"/>
		<path class="st1" d="M233.17,126.06c0.94,0,1.77,0.54,2.17,1.33c0.44,0.89,0.05,1.77,0,1.92"/>
		<path class="st1" d="M236.97,132.96c1.09,0.84,1.48,2.22,1.09,3.3c-0.44,1.13-1.53,1.53-1.73,1.63"/>
		<path class="st1" d="M240.42,140.51c0.2-0.1,1.09-0.54,1.48-1.58c0.39-0.99,0.1-2.17-0.64-3.06"/>
		<line class="st1" x1="241.21" y1="132.67" x2="241.21" y2="129.8"/>
		<line class="st1" x1="240.81" y1="127.68" x2="238.79" y2="127.29"/>
		<line class="st1" x1="242.39" y1="123.15" x2="244.51" y2="127.49"/>
		<path class="st1" d="M244.51,129.36c2.41,0.89,3.35,3.06,2.81,4.24c-0.39,0.84-1.58,1.28-2.81,1.28"/>
		<path class="st1" d="M251.32,134.15c0.25-0.1,1.09-0.64,1.33-1.58c0.29-1.18-0.54-2.66-2.12-3.26"/>
		<path class="st1" d="M247.57,125.32c0.89-0.39,1.58-1.09,1.58-1.77c0-0.99-1.43-2.12-3.6-1.97"/>
		<path class="st1" d="M251.96,117.82c0.2,0,1.33,0.1,2.12,1.03c0.69,0.84,0.84,2.02,0.39,3.06"/>
		<path class="st1" d="M251.96,125.27c1.24-0.29,2.17,0.35,2.27,0.94c0.05,0.44-0.39,0.99-0.99,1.28"/>
		<path class="st1" d="M257.53,124.09c1.82,0.64,2.71,2.17,2.41,3.2c-0.25,0.69-1.03,1.03-1.33,1.18"/>
		<path class="st1" d="M263.95,126.75c0.15-0.15,0.94-0.94,0.94-2.02c0-1.24-0.89-2.37-2.27-2.76"/>
		<path class="st1" d="M259.66,120.14c0.1-0.15,0.59-0.99,0.25-1.97c-0.29-0.94-1.28-1.63-2.41-1.63"/>
		<line class="st1" x1="262.07" y1="113.83" x2="263.25" y2="116.15"/>
		<path class="st1" d="M265.27,116.15c0.74,0.35,1.18,1.03,1.18,1.82c0,0.94-0.74,1.77-1.73,1.97"/>
		<path class="st1" d="M268.98,114.42c0.05-0.15,0.54-1.18,0-2.22c-0.44-0.89-1.43-1.43-2.52-1.38"/>
		<path class="st1" d="M268.98,120.14c0.25,0.05,1.03,0.2,1.48,0.84c0.59,0.89,0.39,2.32-0.64,3.35"/>
		<path class="st1" d="M240.62,147.31c0.1-0.94,0.54-3.7,2.81-6.12c2.56-2.76,5.77-3.2,6.66-3.3"/>
		<path class="st1" d="M243.48,143.22c0.54,1.03,1.63,1.73,2.76,1.73c1.43,0,2.27-1.03,2.41-1.18c-0.29-1.18,0.15-2.41,1.09-3.06
			c1.09-0.79,2.66-0.64,3.65,0.39"/>
		<line class="st1" x1="244.31" y1="152.05" x2="244.56" y2="147.95"/>
		<line class="st1" x1="250.13" y1="152.3" x2="250.13" y2="146.92"/>
		<path class="st1" d="M260,144.5L260,144.5c-1.13,0-2.27,0-3.4,0"/>
		<path class="st1" d="M254.23,143.71c-0.05,0.64-0.49,1.24-1.09,1.48c-0.74,0.29-1.63,0-2.12-0.69"/>
		<line class="st1" x1="239.53" y1="157.57" x2="243.48" y2="157.57"/>
		<line class="st1" x1="245.99" y1="157.57" x2="250.09" y2="157.57"/>
		<line class="st1" x1="254.97" y1="156.24" x2="251.61" y2="156.24"/>
		<polyline class="st1" points="258.03,153.13 254.33,152.74 254.33,147.95 		"/>
		<line class="st1" x1="142.08" y1="142.09" x2="142.08" y2="137.94"/>
		<line class="st1" x1="160.68" y1="153.43" x2="165.71" y2="152.34"/>
		<line class="st1" x1="143.02" y1="133.41" x2="145.39" y2="130.84"/>
		<line class="st1" x1="150.61" y1="129.9" x2="154.16" y2="128.33"/>
		<line class="st1" x1="158.95" y1="131.58" x2="163.38" y2="131.58"/>
		<line class="st1" x1="166.44" y1="142.98" x2="166.44" y2="145.34"/>
		<line class="st1" x1="168.76" y1="140.9" x2="168.27" y2="138.73"/>
		<line class="st1" x1="171.32" y1="142.23" x2="171.67" y2="144.94"/>
		<path class="st1" d="M177.34,139.33c-0.05,0.44-0.1,1.43,0.35,2.47c0.35,0.89,0.89,1.53,1.24,1.82"/>
		<path class="st1" d="M172.81,139.33c0,0.1,0,0.69,0.44,1.13c0.54,0.54,1.28,0.44,1.38,0.44"/>
		<path class="st1" d="M179.32,136.22c-0.05,0.25-0.15,0.74,0,1.38c0.2,0.84,0.79,1.33,0.99,1.48"/>
		<path class="st1" d="M183.61,137.94c0.1,0.05,0.59,0.39,0.74,0.99c0.15,0.59-0.1,1.09-0.15,1.18"/>
		<path class="st1" d="M186.91,130.84c-0.35,0.64-0.35,1.43,0,2.02c0.49,0.79,1.43,0.89,1.53,0.89"/>
		<path class="st1" d="M185.73,135.38c0.74,1.13,1.73,2.37,2.66,2.22c1.03-0.2,1.38-2.02,2.07-1.92c0.35,0.05,0.59,0.54,1.38,2.96
			c0.35,1.09,0.64,2.02,0.84,2.66"/>
		<path class="st1" d="M293.68,121.28c1.38,0.49,2.91-0.15,3.5-1.38c0.54-1.09,0.25-2.47-0.69-3.35"/>
		<path class="st1" d="M296.44,111.95c0.25-0.25,1.03-0.94,1.28-2.12c0.35-1.58-0.44-2.81-0.59-3.01"/>
		<line class="st1" x1="302.41" y1="109.98" x2="303.1" y2="106.23"/>
		<path class="st1" d="M302.41,112.64c0.05,0.05,1.13,1.24,0.69,2.81c-0.39,1.43-1.73,1.92-1.88,1.97"/>
		<path class="st1" d="M307.74,114.96c1.18-0.2,2.07-1.18,2.22-2.32c0.15-1.09-0.44-2.17-1.38-2.66"/>
		<path class="st1" d="M313.8,109.98c0.69,0.35,1.03,1.09,0.84,1.73c-0.2,0.49-0.69,0.89-1.28,0.94"/>
		<path class="st1" d="M306.35,118.51c0.89,0.69,1.28,1.77,1.03,2.81c-0.29,1.24-1.53,2.17-2.91,2.12"/>
		<path class="st1" d="M311.83,121.28c0.74,0.1,1.43-0.25,1.88-0.84c0.44-0.64,0.49-1.43,0.1-2.12"/>
		<path class="st1" d="M316.52,118.91c1.18,0.74,2.71,0.35,3.4-0.79c0.59-1.03,0.25-2.47-0.84-3.16"/>
		<path class="st1" d="M315.23,124.09c0.49,0.79,0.64,1.73,0.25,2.47c-0.59,1.09-2.17,1.58-3.6,0.84"/>
		<path class="st1" d="M311.83,133.31c2.76,0.79,5.23,0.05,6.06-1.53c0.15-0.29,0.44-0.99,0.25-2.12"/>
		<path class="st1" d="M319.08,125.71c0.05,0,1.33-0.05,1.97-1.13c0.64-1.13,0.05-2.27,0-2.27"/>
		<path class="st1" d="M323.72,125.02c0.79,0.35,1.73,0.15,2.32-0.44c0.59-0.59,0.74-1.53,0.35-2.27"/>
		<path class="st1" d="M324.55,128.42c0.39,0.74,0.35,1.63-0.1,2.32c-0.54,0.84-1.67,1.18-2.66,0.84"/>
		<path class="st1" d="M322.68,135.38c0.05,0.39,0.1,0.94-0.25,1.38c-0.59,0.84-1.82,0.54-3.5,0.94c-0.79,0.2-1.88,0.54-3.11,1.43"
			/>
		<path class="st1" d="M325.49,134.79c0.94,0.49,2.02,0.29,2.66-0.44c0.54-0.59,0.69-1.53,0.35-2.32"/>
		<path class="st1" d="M328.15,138.44c0.29,1.28-0.29,2.56-1.38,3.16c-1.24,0.64-2.81,0.2-3.6-1.03"/>
		<path class="st1" d="M326.38,144.5c-0.25,0.79-0.64,1.28-0.94,1.63c-1.92,2.02-5.23,1.24-5.42,1.18"/>
		<path class="st1" d="M327.81,147.27c0.94,0.39,2.02,0.25,2.81-0.35c1.18-0.89,1.03-2.32,1.03-2.41"/>
		<path class="st1" d="M331.66,141.69c0.79,0,1.48-0.39,1.88-1.03c0.39-0.69,0.35-1.58-0.1-2.22"/>
		<path class="st1" d="M337.13,144.5c0.05,0.15,0.2,1.43-0.69,2.41c-0.74,0.84-1.92,1.13-3.01,0.84"/>
		<path class="st1" d="M331.66,150.42c-0.15,0.64-0.44,1.58-1.18,2.47c-1.92,2.27-5.03,2.07-5.42,2.02"/>
		<path class="st1" d="M332.49,154.91c1.53,0.79,3.35,0.39,4.39-0.89c0.94-1.13,1.03-2.76,0.25-4.04"/>
		<path class="st1" d="M342.61,151.8c0.54,0.64,0.74,1.43,0.44,2.12c-0.39,0.94-1.73,1.53-3.01,0.99"/>
		<path class="st1" d="M337.92,157.27c0.05,0.2,0.29,1.24-0.35,2.22c-0.59,0.89-1.67,1.33-2.76,1.18"/>
		<path class="st1" d="M341.32,160.68c0.89,0.59,2.07,0.54,2.81-0.1c0.89-0.74,1.03-2.22,0.25-3.26"/>
		<line class="st1" x1="349.11" y1="159" x2="349.7" y2="156.24"/>
		<path class="st1" d="M347.73,160.68c0.1,0.25,0.54,1.97-0.44,3.6c-0.74,1.18-1.82,1.63-2.22,1.73"/>
		<path class="st1" d="M351.23,164.18c0.89-0.05,1.67-0.59,1.97-1.38c0.39-1.09-0.29-2.02-0.35-2.12"/>
		<path class="st1" d="M356.71,156.24c1.13,0.69,1.38,1.24,1.38,1.63c0,0.89-1.28,1.18-1.38,2.32c-0.05,0.64,0.29,0.89,0.69,1.97
			c0.35,0.99,0.44,1.88,0.44,2.47"/>
		<path class="st1" d="M361.59,163.34c1.33,0.15,2.41-0.69,2.56-1.73c0.1-0.74-0.35-1.53-1.09-1.97"/>
		<line class="st1" x1="361.59" y1="157.27" x2="361" y2="156.24"/>
		<path class="st1" d="M364.5,156.24c0.15-0.1,0.94-0.84,0.94-1.97c0-1.03-0.64-1.97-1.63-2.47"/>
		<path class="st1" d="M358.53,149.93c-1.18,0.15-2.91,0.29-5.08,0.35c-3.26,0.1-4.98,0.2-5.13-0.35c-0.29-1.03,5.57-3.65,5.38-4.09
			c-0.1-0.25-1.77,0.64-4.09,0.59c-1.58-0.05-2.76-0.54-3.6-0.94c-1.13-0.49-4.14-2.07-8.04-7.1c-2.52-3.26-4.54-7.1-3.85-7.69
			c0.59-0.49,2.27,1.67,4.88,1.38c2.27-0.25,3.75-2.52,3.6-2.66c-0.1-0.15-1.53,1.43-3.4,1.38c-1.63-0.05-2.86-1.28-3.7-2.32"/>
		<path class="st1" d="M368.3,154.02c0.99,0.44,1.63,1.43,1.67,2.47c0,1.24-0.89,2.37-2.17,2.66c0.25,0.25,1.09,1.13,1.24,2.56
			c0.15,1.48-0.54,2.56-0.74,2.86"/>
		<path class="st1" d="M374.12,154.02c0.29,0.05,1.48,0.35,2.27,1.43c1.13,1.58,0.49,3.35,0.39,3.5"/>
		<line class="st1" x1="368.3" y1="148.65" x2="371.85" y2="150.37"/>
		<path class="st1" d="M375.45,146.18c0-0.15,0.05-0.89-0.49-1.48c-0.59-0.59-1.53-0.69-2.37-0.25"/>
		<path class="st1" d="M377.72,149.53c0.15-0.05,1.92-0.39,3.2,0.79c1.13,1.03,1.38,2.81,0.64,4.34"/>
		<path class="st1" d="M380.08,146.18c0.35-0.69,0.35-1.48-0.05-2.07c-0.49-0.74-1.38-1.09-2.27-0.84"/>
		<path class="st1" d="M382.4,141.94c0.39-0.2,0.89-0.39,1.53-0.39c2.12-0.05,3.4,2.02,3.5,2.22"/>
		<path class="st1" d="M378.9,139.47c0.15-0.79-0.05-1.53-0.54-1.88c-0.74-0.49-2.17-0.2-2.91,1.13"/>
		<path class="st1" d="M380.08,136.02c0.15-0.1,1.09-0.64,2.22-0.29c0.94,0.29,1.67,1.13,1.88,2.17"/>
		<path class="st1" d="M377.72,132.32c0.29-0.25,0.99-0.74,1.97-0.84c1.88-0.2,3.16,1.28,3.3,1.43c0.59-0.29,2.27-0.99,4.34-0.64
			c1.13,0.2,1.97,0.69,2.52,1.03"/>
		<path class="st1" d="M384.91,128.52c-0.15-0.2-0.64-0.89-1.48-1.09c-1.03-0.25-2.17,0.15-2.91,1.09"/>
		<path class="st1" d="M375.45,125.57c0.15-0.15,0.94-1.24,2.37-1.33c1.18-0.1,2.02,0.44,2.22,0.64"/>
		<path class="st1" d="M383.78,123.49c0.2-0.89,0.64-1.38,0.84-1.53c1.09-0.94,2.96-0.89,4.59,0.2"/>
		<path class="st1" d="M378.9,121.77c0.25-1.33,1.13-2.37,2.12-2.47c0.59-0.1,1.09,0.15,1.38,0.29"/>
		<path class="st1" d="M381.12,114.42c0.25-0.29,0.89-0.94,1.97-1.13c1.88-0.39,3.3,1.03,3.4,1.13"/>
		<path class="st1" d="M374.61,119.99c-0.29-1.18,0.15-2.41,1.03-3.01c0.89-0.59,1.92-0.35,2.12-0.29"/>
		<path class="st1" d="M377.92,112.45c-0.69-0.89-1.97-1.13-2.86-0.54c-0.84,0.49-1.24,1.53-0.94,2.52"/>
		<path class="st1" d="M375.45,106.04c-0.2,0.15-1.33,1.13-1.43,2.81c-0.15,1.73,0.89,2.86,1.03,3.06"/>
		<path class="st1" d="M369.68,116.68c-0.79-0.94-0.84-2.22-0.2-3.01c0.59-0.74,1.63-0.79,1.77-0.79"/>
		<path class="st1" d="M368.3,111.41c-0.25-0.15-0.89-0.64-1.13-1.43c-0.35-1.09,0.1-2.37,1.13-3.2"/>
		<path class="st1" d="M365.44,105.4c-0.64,0.05-1.28-0.25-1.58-0.74c-0.39-0.69-0.15-1.73,0.74-2.27"/>
		<path class="st1" d="M358.53,104.8c-0.74,0.99-0.84,2.32-0.2,3.2c0.59,0.89,1.53,1.03,1.77,1.09"/>
		<path class="st1" d="M363.81,109.39c-0.59,0.59-0.79,1.43-0.54,2.22c0.35,0.94,1.24,1.28,1.38,1.28"/>
		<path class="st1" d="M362.13,116.68c-0.89,0.35-1.82,0.1-2.37-0.49c-0.64-0.74-0.49-1.63-0.44-1.77"/>
		<path class="st1" d="M356.71,114.42c-0.2,0.05-1.28,0.2-2.12-0.49c-0.89-0.74-1.18-2.22-0.49-3.5"/>
		<path class="st1" d="M350.74,111.16c-0.1,0.05-1.13,0.25-1.88-0.35c-0.74-0.64-0.94-1.88-0.29-2.91"/>
		<path class="st1" d="M344.87,113.88c0.05,0.2,0.44,1.24,1.63,1.77c1.28,0.54,2.47-0.05,2.62-0.1"/>
		<path class="st1" d="M355.38,117.92c-0.1,0.05-1.03,0.64-1.13,1.53c-0.05,1.03,0.94,2.12,2.41,2.27"/>
		<path class="st1" d="M350.74,120.68c-0.29,0.1-0.89,0.29-1.53,0.15c-1.58-0.29-2.17-1.97-2.22-2.07"/>
		<path class="st1" d="M343.1,120.68c-0.05,0.74,0.29,1.43,0.94,1.82c0.69,0.39,1.58,0.29,2.22-0.2"/>
		<path class="st1" d="M349.66,124.33c0.1,0.29,0.64,1.73,2.22,2.47c1.38,0.69,2.71,0.39,3.06,0.29"/>
		<path class="st1" d="M347.44,126.6c-0.35,0.44-0.79,0.89-1.24,0.84c-0.89-0.1-1.03-1.73-1.97-1.88c-0.84-0.1-1.28,1.18-2.17,1.13
			c-0.69-0.05-1.24-0.84-1.53-1.53"/>
		<path class="st1" d="M347.44,129.61c0.2,1.38,1.24,2.32,2.27,2.27c0.99-0.05,1.58-0.94,1.67-1.03"/>
		<path class="st1" d="M346.25,133.36c0-0.05,0.15-0.79-0.25-1.13c-0.39-0.35-1.38-0.25-2.02,0.64"/>
		<path class="st1" d="M346.99,136.02c0.29,1.03,1.13,1.77,2.07,1.77s1.58-0.74,1.67-0.84"/>
		<path class="st1" d="M348.57,141.69c-0.1,0.15-0.49,0.79-1.24,0.99c-0.79,0.2-1.73-0.2-2.22-0.99"/>
		<path class="st1" d="M344.67,138.73c0.1-0.54-0.1-1.09-0.54-1.33c-0.54-0.35-1.38-0.15-1.77,0.49"/>
		<path class="st1" d="M362.82,167.78l-6.17,1.48c0.59,1.77,1.58,5.67,0.59,10.46c-1.03,5.13-3.75,8.43-5.03,9.82
			c0.54,0,1.38,0,2.37-0.1c1.48-0.15,1.92-0.39,2.37-0.1c0.69,0.49,0.84,1.97,0.29,3.01c-0.74,1.38-2.41,1.18-3.94,1.97
			c-1.43,0.74-3.01,2.41-3.85,6.71c-0.29,3.6-0.64,7.25-0.94,10.85c-0.79-0.94-1.63-2.27-2.17-3.94c-1.38-4.19-0.05-8.33,0.1-8.29
			c0.1,0-0.15,2.76-1.43,12.82c-0.59-0.59-1.53-1.73-2.17-3.3c-2.22-5.42,0.94-11.64,1.03-11.59c0.05,0-0.64,2.32-4.34,14.15"/>
		<line class="st1" x1="337.08" y1="202.25" x2="339.6" y2="196.43"/>
		<line class="st1" x1="331.8" y1="206.15" x2="336.09" y2="206.15"/>
		<line class="st1" x1="337.28" y1="206.15" x2="341.32" y2="206.15"/>
		<polyline class="st1" points="342.16,206.15 345.86,206.15 349.01,206.15 		"/>
		<path class="st1" d="M345.56,173.4c3.01,1.13,4.39,0.74,5.13,0.2c0.49-0.39,0.89-1.09,1.28-0.99c0.49,0.15,0.35,1.18,1.09,2.12
			c0.54,0.69,1.33,0.99,1.88,1.13"/>
		<path class="st1" d="M353.85,177.84c-0.39-0.29-0.99-0.35-1.38-0.1c-0.49,0.29-0.74,0.89-0.54,1.48"/>
		<line class="st1" x1="349.01" y1="175.87" x2="350.25" y2="177.84"/>
		<line class="st1" x1="345.66" y1="181.05" x2="347.93" y2="181.69"/>
		<line class="st1" x1="350.25" y1="182.03" x2="350.84" y2="182.82"/>
		<line class="st1" x1="350.25" y1="187.55" x2="347.19" y2="186.91"/>
		<line class="st1" x1="357.5" y1="172.61" x2="362.87" y2="172.27"/>
		<line class="st1" x1="357.4" y1="180.75" x2="361.49" y2="180.6"/>
		<line class="st1" x1="347.19" y1="170.44" x2="348.42" y2="169.21"/>
		<path class="st1" d="M358.14,186.47c-0.05,0.05-0.74,0.59-1.58,0.35c-0.69-0.25-1.18-0.94-1.13-1.73c-1.38,0-2.76,0-4.19,0"/>
		<line class="st1" x1="357.54" y1="190.12" x2="361.49" y2="190.12"/>
		<line class="st1" x1="359.77" y1="195.1" x2="357.3" y2="192.39"/>
		<path class="st1" d="M355.72,197.02c0.15,1.09-0.25,1.63-0.39,1.77c-0.84,0.94-2.96,0.94-5.08-0.59"/>
		<line class="st1" x1="355.72" y1="206.15" x2="349.21" y2="203.88"/>
		<path class="st1" d="M339.6,217.04c0.39,0.15,1.09,0.29,1.88,0.29c0.64,0,1.18-0.15,1.58-0.29"/>
		<path class="st1" d="M345.41,217.04c0.44,0.84,1.38,1.28,2.17,1.09c0.79-0.2,1.13-0.99,1.18-1.09"/>
		<path class="st1" d="M344.92,220.9c-0.2,0.25-0.54,0.44-0.94,0.59c-0.89,0.25-1.97-0.25-2.66-1.18"/>
		<path class="st1" d="M340.78,225.19c-0.29,0.44-0.64,0.69-0.94,0.84c-1.43,0.79-3.65,0-5.57-1.88"/>
		<path class="st1" d="M343.79,225.19c0.35,0.29,1.38,1.13,2.91,1.33c1.38,0.15,2.41-0.25,2.86-0.44"/>
		<path class="st1" d="M343.05,230.66c-0.39,0.1-1.09,0.15-1.88,0.05c-0.69-0.1-1.24-0.35-1.58-0.54"/>
		<path class="st1" d="M340.28,233.52c0,0.05,0.2,0.64-0.2,1.13c-0.2,0.25-0.39,0.35-0.54,0.39"/>
		<path class="st1" d="M343.1,234.26c0.39,0.2,1.33,0.69,2.62,0.59c0.89-0.05,1.53-0.39,1.92-0.59"/>
		<path class="st1" d="M338.9,238.16c0.1,0.15,0.74,0.94,1.82,1.13c0.89,0.15,1.58-0.15,1.77-0.29"/>
		<path class="st1" d="M343.79,242.25c0.59,0.25,2.17,0.79,3.94,0.25c0.59-0.2,1.09-0.44,1.48-0.69"/>
		<path class="st1" d="M350.3,246.1c-0.35,0.2-1.13,0.64-2.22,0.64c-1.13,0.05-1.92-0.35-2.27-0.54"/>
		<line class="st1" x1="343.1" y1="246.64" x2="341.32" y2="247.23"/>
		<path class="st1" d="M343.1,250.24c0.49,0,1.13-0.05,1.82-0.25c0.59-0.15,1.13-0.35,1.53-0.54"/>
		<path class="st1" d="M344.82,253.74c0.05,0.1,0.29,0.54,0.89,0.74c0.49,0.15,0.89,0.05,1.03,0"/>
		<path class="st1" d="M338.96,253.34c0.05,0.2,0.44,1.58,1.82,2.17c0.79,0.35,1.48,0.25,1.77,0.2"/>
		<path class="st1" d="M343.79,257.09c0,0.1,0.15,1.03,0.94,1.53c0.39,0.25,0.79,0.25,0.99,0.25"/>
		<path class="st1" d="M338.96,261.09c0.2,0.29,0.54,0.84,1.24,1.28c0.44,0.29,0.84,0.39,1.13,0.49"/>
		<path class="st1" d="M337.52,265.23c0.05,0.2,0.39,1.24,1.48,1.67c0.54,0.25,1.03,0.2,1.28,0.2"/>
		<path class="st1" d="M338.96,271.64c-0.29-0.1-0.99-0.39-1.58-1.13c-0.69-0.79-0.79-1.67-0.84-1.97"/>
		<path class="st1" d="M348.96,260c-0.29,0.44-0.79,1.09-1.53,1.43c-1.53,0.79-2.91,0.1-3.16,0.54c-0.44,0.84,4.44,3.94,4.04,4.68
			c-0.2,0.35-1.88,0.2-3.2-0.59c-0.74-0.44-1.13-0.94-1.38-0.84c-0.35,0.2-0.2,1.38,0.1,2.27c0.35,0.99,0.74,1.24,0.64,1.63
			c-0.1,0.35-0.69,0.74-2.86,0.69c0.1,3.06-0.49,4-1.03,4.19c-0.64,0.25-1.24-0.39-1.73-0.05c-0.64,0.44,0.15,1.82-0.44,3.26
			c-0.44,1.09-1.53,2.02-2.52,2.02c-1.38,0-2.91-2.02-3.06-5.03"/>
		<path class="st1" d="M332.89,274.35c0.49,0.25,1.58,0.79,3.06,0.74c1.28-0.05,2.22-0.49,2.71-0.74"/>
	</g>
	<g>
		<g>
			<g>
				<path class="st0" d="M162.8,86.95c1.18-0.2,2.27-0.99,2.86-2.02c0.79-1.38-1.33-2.62-2.12-1.24c-0.15,0.2-0.35,0.44-0.49,0.54
					c-0.05,0.05-0.39,0.2-0.25,0.15c-0.2,0.1-0.39,0.1-0.59,0.15c-0.64,0.1-1.03,0.94-0.84,1.53
					C161.46,86.8,162.15,87.05,162.8,86.95L162.8,86.95z"/>
			</g>
		</g>
		<g>
			<g>
				<path class="st0" d="M175.57,91.34c0.74-1.09,1.13-2.37,1.18-3.7c0.05-1.58-2.41-1.58-2.47,0c-0.05,0.89-0.35,1.73-0.89,2.47
					c-0.39,0.54-0.1,1.38,0.44,1.67C174.48,92.13,175.18,91.88,175.57,91.34L175.57,91.34z"/>
			</g>
		</g>
		<g>
			<g>
				<path class="st0" d="M160.62,131.63c0.25-0.05,0.49-0.1,0.79-0.05c1.43,0.05,1.63-2.02,0.35-2.41
					c-0.15-0.05-0.54-0.15-0.59-0.29c-0.59,0.44-1.18,0.94-1.82,1.38c0.15,0.1,0.2,0.1,0.35,0.25c0.39-0.69,0.79-1.38,1.18-2.07
					c0.25,0.15,0.29,0.15,0.15,0.05c-0.05-0.1-0.15-0.15-0.2-0.25c-0.15-0.15-0.29-0.29-0.39-0.44c-0.25-0.29-0.49-0.59-0.74-0.89
					c-0.39-0.54-1.09-0.79-1.67-0.44c-0.54,0.29-0.84,1.13-0.44,1.67c0.39,0.54,0.79,1.03,1.24,1.53c0.39,0.44,0.79,0.94,1.43,1.13
					c1.18,0.35,2.12-1.24,1.18-2.07c-0.25-0.25-0.54-0.44-0.84-0.64c-0.94-0.59-2.07,0.39-1.82,1.38c0.29,1.13,1.24,1.67,2.32,2.02
					c0.1-0.79,0.2-1.63,0.35-2.41c-0.49,0-0.99,0.05-1.43,0.15C158.41,129.61,159.05,131.98,160.62,131.63L160.62,131.63z"/>
			</g>
		</g>
		<g>
			<g>
				<path class="st0" d="M145.73,127.93c1.13,0.2,2.41,0.29,3.5,0.69c0.35,0.1,0.64,0.35,0.99,0.49c0.44,0.15,0.89,0.05,1.33,0.1
					c1.53,0.29,2.22-2.07,0.64-2.37c-0.35-0.05-0.74,0.05-1.09-0.05c-0.35-0.05-0.84-0.44-1.24-0.59c-1.13-0.35-2.37-0.54-3.5-0.69
					C144.8,125.32,144.16,127.68,145.73,127.93L145.73,127.93z"/>
			</g>
		</g>
		<g>
			<g>
				<path class="st0" d="M251.32,157.08c0.05,0.54,0.29,0.94,0.39,1.48c0.15,0.49,0.2,0.99,0.44,1.43c0.35,0.59,1.09,0.79,1.67,0.44
					c0.59-0.35,0.79-1.13,0.44-1.67c-0.1-0.15-0.15-0.59-0.2-0.84c-0.05-0.15-0.1-0.29-0.15-0.44c-0.05-0.15-0.1-0.29-0.2-0.44
					c-0.1-0.2-0.1-0.2,0,0.05c-0.05-0.64-0.54-1.24-1.24-1.24C251.91,155.85,251.27,156.39,251.32,157.08L251.32,157.08z"/>
			</g>
		</g>
		<g>
			<g>
				<path class="st0" d="M254.52,154.36c0.44,0.35,0.84,0.49,1.38,0.64c-0.29-0.29-0.59-0.59-0.84-0.84c0,0.05,0,0.1,0.05,0.1
					c0.05-0.29,0.1-0.64,0.15-0.94c-0.05,0.05-0.05,0.1-0.1,0.1c0.25-0.2,0.49-0.39,0.74-0.54c-0.54,0.2-0.89,0.35-1.18,0.84
					c-0.35,0.54-0.1,1.38,0.44,1.67c0.25,0.15,0.44,0.25,0.64,0.39c-0.2-0.25-0.39-0.49-0.54-0.74c0,0.05,0,0.1,0.05,0.15
					c0.1-0.39,0.2-0.79,0.29-1.18c-0.2,0.25-0.49,0.44-0.74,0.64c-0.79,0.64-0.2,1.77,0.54,2.07c-0.25-0.39-0.35-0.39-0.25,0.05
					c0,0.25,0.05,0.49,0.05,0.69c0.05,0.44,0.1,0.84,0.2,1.28c0.35,1.53,2.76,0.89,2.37-0.64c-0.2-0.79-0.05-1.63-0.25-2.37
					c-0.2-0.74-0.79-1.13-1.48-1.38c0.2,0.69,0.35,1.38,0.54,2.07c0.54-0.44,1.18-0.84,1.09-1.67c-0.1-0.74-0.69-1.09-1.28-1.43
					c0.15,0.54,0.29,1.13,0.44,1.67c-0.15,0.25-0.39,0.44,0,0.2c0.2-0.1,0.35-0.29,0.49-0.49c0.2-0.35,0.25-0.74,0.15-1.13
					c-0.1-0.39-0.44-0.74-0.84-0.84c-0.1-0.05-0.2-0.05-0.29,0C255.02,151.65,253.24,153.38,254.52,154.36L254.52,154.36z"/>
			</g>
		</g>
		<g>
			<g>
				<path class="st0" d="M252.25,157.91c1.58,0,1.58-2.47,0-2.47C250.68,155.45,250.68,157.91,252.25,157.91L252.25,157.91z"/>
			</g>
		</g>
		<g>
			<g>
				<path class="st0" d="M251.61,157.97c1.58,0,1.58-2.47,0-2.47C250.04,155.5,250.04,157.97,251.61,157.97L251.61,157.97z"/>
			</g>
		</g>
		<g>
			<g>
				<path class="st0" d="M169.55,90.75c0.69,0.05,1.33,0.2,1.92,0.49c0.2-0.79,0.39-1.53,0.64-2.32c0.39,0.05,0-0.1-0.15-0.15
					c-0.15-0.1-0.35-0.2-0.49-0.29c0.15,0.15,0.29,0.29,0.44,0.44c-0.05-0.05-0.05-0.1-0.1-0.15c0.05,0.29,0.1,0.64,0.15,0.94
					c0-0.05,0-0.1,0.05-0.15c-0.1,0.2-0.2,0.35-0.29,0.54c0.05-0.05,0.1-0.05,0.1-0.1c-0.2,0.1-0.35,0.2-0.54,0.29
					c-0.05,0-0.05,0,0.05,0c0.59-0.05,0.99-0.35,1.18-0.89c0.1-0.2,0.1-0.54,0.05-0.74c-0.05-0.15-0.05-0.15-0.05,0
					s0,0.15,0.05-0.05c0.2-0.29,0.2-0.74,0.2-1.09c0-1.58-2.47-1.58-2.47,0c0,0.25-0.15,0.39-0.2,0.64c-0.1,0.39-0.1,0.79,0.05,1.13
					c0-0.2,0-0.44,0-0.64c0,0.05,0,0.05-0.05,0.1c0.39-0.29,0.79-0.59,1.18-0.89c-0.54,0.05-0.99,0.1-1.38,0.49
					c-0.44,0.44-0.49,1.18-0.2,1.73c0.44,0.74,1.58,1.28,2.37,1.33c1.24,0.1,1.67-1.77,0.64-2.32c-0.99-0.49-2.02-0.79-3.16-0.84
					c-0.64-0.05-1.24,0.59-1.24,1.24C168.32,90.2,168.86,90.7,169.55,90.75L169.55,90.75z"/>
			</g>
		</g>
	</g>
</g>
</svg>
